<svg xmlns="http://www.w3.org/2000/svg" xml:space="preserve" id="Layer_1" width="400" height="350" x="0" y="0" style="enable-background:new 0 0 1080 1080" version="1.1" viewBox="0 0 1080 1080">
  <style>
    .st7{fill:none}.st8{fill:#2590EB}.st9{fill:#fff}
  </style>
  <linearGradient id="SVGID_1_" x1="705.316" x2="705.316" y1="491.297" y2="491.297" gradientUnits="userSpaceOnUse">
    <stop offset="0" style="stop-color:#eeeefa"/>
    <stop offset=".095" style="stop-color:#c4c4cf"/>
    <stop offset=".183" style="stop-color:#a4a4af"/>
    <stop offset=".257" style="stop-color:#90909b"/>
    <stop offset=".307" style="stop-color:#898994"/>
    <stop offset=".316" style="stop-color:#9999a4"/>
    <stop offset=".336" style="stop-color:#b3b3bf"/>
    <stop offset=".358" style="stop-color:#c9c9d5"/>
    <stop offset=".385" style="stop-color:#dadae6"/>
    <stop offset=".417" style="stop-color:#e5e5f1"/>
    <stop offset=".463" style="stop-color:#ececf8"/>
    <stop offset=".589" style="stop-color:#eeeefa"/>
    <stop offset=".597" style="stop-color:#ececf7"/>
    <stop offset=".698" style="stop-color:#d1d1db"/>
    <stop offset=".799" style="stop-color:#bebec7"/>
    <stop offset=".9" style="stop-color:#b3b3bb"/>
    <stop offset="1" style="stop-color:#afafb7"/>
  </linearGradient>
  <linearGradient id="SVGID_00000057119831636428757900000009304598557772251564_" x1="458.683" x2="458.683" y1="465.229" y2="465.229" gradientUnits="userSpaceOnUse">
    <stop offset="0" style="stop-color:#eeeefa"/>
    <stop offset=".095" style="stop-color:#c4c4cf"/>
    <stop offset=".183" style="stop-color:#a4a4af"/>
    <stop offset=".257" style="stop-color:#90909b"/>
    <stop offset=".307" style="stop-color:#898994"/>
    <stop offset=".316" style="stop-color:#9999a4"/>
    <stop offset=".336" style="stop-color:#b3b3bf"/>
    <stop offset=".358" style="stop-color:#c9c9d5"/>
    <stop offset=".385" style="stop-color:#dadae6"/>
    <stop offset=".417" style="stop-color:#e5e5f1"/>
    <stop offset=".463" style="stop-color:#ececf8"/>
    <stop offset=".589" style="stop-color:#eeeefa"/>
    <stop offset=".597" style="stop-color:#ececf7"/>
    <stop offset=".698" style="stop-color:#d1d1db"/>
    <stop offset=".799" style="stop-color:#bebec7"/>
    <stop offset=".9" style="stop-color:#b3b3bb"/>
    <stop offset="1" style="stop-color:#afafb7"/>
  </linearGradient>
  <linearGradient id="SVGID_00000132057832381097756540000010232290407029694602_" x1="306.82" x2="306.82" y1="520.974" y2="520.974" gradientUnits="userSpaceOnUse">
    <stop offset="0" style="stop-color:#eeeefa"/>
    <stop offset=".095" style="stop-color:#c4c4cf"/>
    <stop offset=".183" style="stop-color:#a4a4af"/>
    <stop offset=".257" style="stop-color:#90909b"/>
    <stop offset=".307" style="stop-color:#898994"/>
    <stop offset=".316" style="stop-color:#9999a4"/>
    <stop offset=".336" style="stop-color:#b3b3bf"/>
    <stop offset=".358" style="stop-color:#c9c9d5"/>
    <stop offset=".385" style="stop-color:#dadae6"/>
    <stop offset=".417" style="stop-color:#e5e5f1"/>
    <stop offset=".463" style="stop-color:#ececf8"/>
    <stop offset=".589" style="stop-color:#eeeefa"/>
    <stop offset=".597" style="stop-color:#ececf7"/>
    <stop offset=".698" style="stop-color:#d1d1db"/>
    <stop offset=".799" style="stop-color:#bebec7"/>
    <stop offset=".9" style="stop-color:#b3b3bb"/>
    <stop offset="1" style="stop-color:#afafb7"/>
  </linearGradient>
  <linearGradient id="SVGID_00000137091969587177625380000011541812221359128974_" x1="572.82" x2="572.82" y1="488.565" y2="488.565" gradientUnits="userSpaceOnUse">
    <stop offset="0" style="stop-color:#eeeefa"/>
    <stop offset=".095" style="stop-color:#c4c4cf"/>
    <stop offset=".183" style="stop-color:#a4a4af"/>
    <stop offset=".257" style="stop-color:#90909b"/>
    <stop offset=".307" style="stop-color:#898994"/>
    <stop offset=".316" style="stop-color:#9999a4"/>
    <stop offset=".336" style="stop-color:#b3b3bf"/>
    <stop offset=".358" style="stop-color:#c9c9d5"/>
    <stop offset=".385" style="stop-color:#dadae6"/>
    <stop offset=".417" style="stop-color:#e5e5f1"/>
    <stop offset=".463" style="stop-color:#ececf8"/>
    <stop offset=".589" style="stop-color:#eeeefa"/>
    <stop offset=".597" style="stop-color:#ececf7"/>
    <stop offset=".698" style="stop-color:#d1d1db"/>
    <stop offset=".799" style="stop-color:#bebec7"/>
    <stop offset=".9" style="stop-color:#b3b3bb"/>
    <stop offset="1" style="stop-color:#afafb7"/>
  </linearGradient>
  <linearGradient id="SVGID_00000008834966252733142410000009240471445009204883_" x1="763.23" x2="763.23" y1="527.496" y2="527.496" gradientUnits="userSpaceOnUse">
    <stop offset="0" style="stop-color:#eeeefa"/>
    <stop offset=".095" style="stop-color:#c4c4cf"/>
    <stop offset=".183" style="stop-color:#a4a4af"/>
    <stop offset=".257" style="stop-color:#90909b"/>
    <stop offset=".307" style="stop-color:#898994"/>
    <stop offset=".316" style="stop-color:#9999a4"/>
    <stop offset=".336" style="stop-color:#b3b3bf"/>
    <stop offset=".358" style="stop-color:#c9c9d5"/>
    <stop offset=".385" style="stop-color:#dadae6"/>
    <stop offset=".417" style="stop-color:#e5e5f1"/>
    <stop offset=".463" style="stop-color:#ececf8"/>
    <stop offset=".589" style="stop-color:#eeeefa"/>
    <stop offset=".597" style="stop-color:#ececf7"/>
    <stop offset=".698" style="stop-color:#d1d1db"/>
    <stop offset=".799" style="stop-color:#bebec7"/>
    <stop offset=".9" style="stop-color:#b3b3bb"/>
    <stop offset="1" style="stop-color:#afafb7"/>
  </linearGradient>
  <linearGradient id="SVGID_00000152959989872920681310000016376428613093841822_" x1="862.031" x2="862.031" y1="563.591" y2="563.591" gradientUnits="userSpaceOnUse">
    <stop offset="0" style="stop-color:#eeeefa"/>
    <stop offset=".095" style="stop-color:#c4c4cf"/>
    <stop offset=".183" style="stop-color:#a4a4af"/>
    <stop offset=".257" style="stop-color:#90909b"/>
    <stop offset=".307" style="stop-color:#898994"/>
    <stop offset=".316" style="stop-color:#9999a4"/>
    <stop offset=".336" style="stop-color:#b3b3bf"/>
    <stop offset=".358" style="stop-color:#c9c9d5"/>
    <stop offset=".385" style="stop-color:#dadae6"/>
    <stop offset=".417" style="stop-color:#e5e5f1"/>
    <stop offset=".463" style="stop-color:#ececf8"/>
    <stop offset=".589" style="stop-color:#eeeefa"/>
    <stop offset=".597" style="stop-color:#ececf7"/>
    <stop offset=".698" style="stop-color:#d1d1db"/>
    <stop offset=".799" style="stop-color:#bebec7"/>
    <stop offset=".9" style="stop-color:#b3b3bb"/>
    <stop offset="1" style="stop-color:#afafb7"/>
  </linearGradient>
  <linearGradient id="SVGID_00000163753288885131148030000005364055769424387978_" x1="846.419" x2="846.419" y1="507.364" y2="507.364" gradientUnits="userSpaceOnUse">
    <stop offset="0" style="stop-color:#eeeefa"/>
    <stop offset=".095" style="stop-color:#c4c4cf"/>
    <stop offset=".183" style="stop-color:#a4a4af"/>
    <stop offset=".257" style="stop-color:#90909b"/>
    <stop offset=".307" style="stop-color:#898994"/>
    <stop offset=".316" style="stop-color:#9999a4"/>
    <stop offset=".336" style="stop-color:#b3b3bf"/>
    <stop offset=".358" style="stop-color:#c9c9d5"/>
    <stop offset=".385" style="stop-color:#dadae6"/>
    <stop offset=".417" style="stop-color:#e5e5f1"/>
    <stop offset=".463" style="stop-color:#ececf8"/>
    <stop offset=".589" style="stop-color:#eeeefa"/>
    <stop offset=".597" style="stop-color:#ececf7"/>
    <stop offset=".698" style="stop-color:#d1d1db"/>
    <stop offset=".799" style="stop-color:#bebec7"/>
    <stop offset=".9" style="stop-color:#b3b3bb"/>
    <stop offset="1" style="stop-color:#afafb7"/>
  </linearGradient>
  <path d="M584.65 560.08c1.43 0 2.51-.31 3.4-.81h-35.56v.81h32.16zM678.21 559.27h-.37v.3zM589.78 557.87c.8-1.01 1.31-2.21 1.31-3.52 0-1.41-.5-2.81-1.51-3.82-1-1.1-2.61-1.81-4.92-1.81H554c-1 0-1.51.6-1.51 1.51v9.04h35.56c.67-.37 1.25-.84 1.73-1.4zM485.14 549.83c-.6-1.51-1.81-2.11-3.11-2.11-1.21 0-2.31.5-3.02 2.11l-4.02 9.44h14.21l-4.06-9.44zM142.49 573.24c0 .6.4 1.11 1.1 1.11h31.05v-15.08h-13.4l-18.05 12.87c-.5.3-.7.6-.7 1.1zM174.65 553.34c0-1.3-.8-2.01-1.51-2.01-.6 0-.9.1-1.61.6l-10.29 7.33h13.4v-5.92z" class="st7"/>
  <path d="M173.65 600.67v-9.45h-46.33c-5.12 0-8.58-1.19-10.89-3.75-1.81-2.03-2.77-4.83-2.77-8.11 0-2.55.76-4.79 2.32-6.83.92-1.23 2.04-2.39 4.73-4.33l48.33-35.37c3.48-2.56 6.39-3.61 10.04-3.61 4.25 0 8.03 1.38 10.64 3.9 2.84 2.72 4.23 6.87 4.23 12.68v54.87h-20.3zm-.51-48.34c-.34 0-.44 0-1.03.42l-28.34 20.2c-.24.15-.28.2-.28.2l.02.18 30.14.01v-20.01c0-.71-.36-1-.51-1z" class="st8"/>
  <path d="M179.07 530.23c3.52 0 7.24 1 9.95 3.62 2.31 2.21 3.92 5.73 3.92 11.96v53.86h-18.29v-9.45h-47.33c-5.23 0-8.24-1.3-10.15-3.42-1.71-1.91-2.51-4.52-2.51-7.44 0-2.01.5-4.12 2.11-6.23.9-1.21 2.01-2.31 4.52-4.12l13.33-9.75 35.01-25.62c3.41-2.51 6.13-3.41 9.44-3.41m-35.47 44.12h31.05V553.34c0-1.31-.8-2.01-1.51-2.01-.6 0-.9.1-1.61.6l-10.29 7.33-18.05 12.87c-.5.3-.7.6-.7 1.1 0 .61.4 1.12 1.11 1.12m35.47-46.12c-3.88 0-6.96 1.1-10.63 3.8l-35.01 25.62-13.33 9.75c-2.44 1.76-3.78 2.99-4.94 4.53-1.69 2.21-2.51 4.65-2.51 7.43 0 3.53 1.05 6.56 3.02 8.77 2.52 2.79 6.22 4.08 11.64 4.08h45.33v9.45h22.29V545.8c0-6.1-1.48-10.48-4.54-13.4-2.78-2.69-6.8-4.17-11.32-4.17zm-32.73 44.12 16.06-11.45 10.24-7.3v18.75h-26.3z" class="st9"/>
  <path d="M213.36 600.67v-48.13c0-1.54-.52-1.81-1.61-1.81H199.6v-19.99h16.07c12.8 0 17.78 5.35 17.78 19.09v50.85h-20.09z" class="st8"/>
  <path d="M215.67 531.74c12.66 0 16.78 5.43 16.78 18.09V599.67h-18.09V552.54c0-1.91-.8-2.81-2.61-2.81H200.6v-17.99h15.07m0-2H198.6v21.99h13.15c.3 0 .46.04.52.06.03.07.1.29.1.75V601.67h22.09V549.83c-.01-14.27-5.45-20.09-18.79-20.09z" class="st9"/>
  <path d="M241.21 600.67v-19.39h46.02c3.45 0 5.13-1.48 5.13-4.53 0-3.02-1.63-4.43-5.13-4.43h-13.67c-4.99 0-7.63-2.4-7.63-6.93 0-3.32 1.76-5.09 4.59-6.88l11.76-7.44c.39-.22.49-.32.52-.36-.02 0-.05-.01-.09-.01h-41.3v-19.99h59.79c7.51 0 12.36 4.3 12.36 10.95 0 3.76-1.65 6.61-5.52 9.54l-10.85 7.9c11.72 1.37 18.19 8.63 18.19 20.45 0 10.48-7.8 21.1-22.71 21.1h-51.46z" class="st8"/>
  <path d="M301.2 531.74c7.54 0 11.36 4.32 11.36 9.95 0 3.72-1.81 6.23-5.13 8.74l-11.05 8.04c-.3.2-.4.6-.4.8 0 .4.2.7.7.8 10.45 1.11 17.69 7.14 17.69 19.5 0 10.55-7.84 20.1-21.71 20.1h-50.45v-17.39h45.02c4.52 0 6.13-2.41 6.13-5.53 0-3.11-1.61-5.43-6.13-5.43h-13.67c-5.33 0-6.63-2.81-6.63-5.93 0-2.81 1.41-4.32 4.12-6.03l.16-.1 11.59-7.33c.7-.4 1.01-.7 1.01-1.31 0-.5-.4-.9-1.11-.9h-40.3v-17.99h58.8m0-1.99h-60.79v21.99h38.99l-9.25 5.85-.16.1c-3.03 1.91-5.05 3.95-5.05 7.72 0 5.11 3.07 7.93 8.63 7.93h13.67c3.63 0 4.13 1.65 4.13 3.43 0 1.74-.49 3.53-4.13 3.53h-47.02v21.39h52.45c15.56 0 23.71-11.12 23.71-22.1 0-11.37-6.03-18.92-16.65-21.06l8.9-6.47c2.96-2.24 5.95-5.2 5.95-10.36-.02-7.26-5.27-11.95-13.38-11.95z" class="st9"/>
  <linearGradient id="SVGID_00000031890061030140848660000007057912713774995366_" x1="395.25" x2="396.333" y1="607.836" y2="512.48" gradientUnits="userSpaceOnUse">
    <stop offset="0" style="stop-color:#eeeefa"/>
    <stop offset=".095" style="stop-color:#2590EB"/>
    <stop offset=".183" style="stop-color:#2590EB"/>
    <stop offset=".257" style="stop-color:#2590EB"/>
    <stop offset=".307" style="stop-color:#2590EB"/>
    <stop offset=".316" style="stop-color:#9999a4"/>
    <stop offset=".336" style="stop-color:#2590EB"/>
    <stop offset=".358" style="stop-color:#c9c9d5"/>
    <stop offset=".385" style="stop-color:#dadae6"/>
    <stop offset=".417" style="stop-color:#e5e5f1"/>
    <stop offset=".463" style="stop-color:#ececf8"/>
    <stop offset=".589" style="stop-color:#eeeefa"/>
    <stop offset=".597" style="stop-color:#ececf7"/>
    <stop offset=".698" style="stop-color:#d1d1db"/>
    <stop offset=".799" style="stop-color:#bebec7"/>
    <stop offset=".9" style="stop-color:#b3b3bb"/>
    <stop offset="1" style="stop-color:#afafb7"/>
  </linearGradient>
  <path d="M395.79 600.67c-11.74 0-21.19-3.83-28.07-11.38-5.81-6.34-9-14.72-9-23.59 0-2.15.22-4.31.66-6.62 1.41-7.31 5.18-14.1 10.61-19.13 6.67-6.11 15.35-9.21 25.8-9.21h35.58l1 1v17.99l-1 1h-35.58c-5.34 0-9.1 1.28-12.18 4.15a14.806 14.806 0 0 0-3.4 4.8c-.87 1.95-1.31 4.01-1.31 6.13 0 3.75 1.4 7.33 3.96 10.07 2.99 3.3 7.22 4.91 12.93 4.91h35.58l1 1v17.89l-1 1h-35.58z" style="fill:url(#SVGID_00000031890061030140848660000007057912713774995366_)"/>
  <path d="M431.36 531.74v17.99h-35.58c-6.13 0-9.95 1.71-12.86 4.42a15.912 15.912 0 0 0-3.63 5.12c-.9 2.01-1.4 4.23-1.4 6.54 0 4.12 1.61 7.94 4.22 10.75 2.91 3.22 7.24 5.23 13.67 5.23h35.58v17.89h-35.58c-12.16 0-21.1-4.22-27.34-11.05-5.43-5.93-8.74-13.97-8.74-22.91 0-2.2.24-4.34.64-6.43 1.4-7.26 5.08-13.75 10.31-18.59 6.03-5.53 14.17-8.95 25.12-8.95h35.59m0-2.01h-35.58c-10.71 0-19.62 3.19-26.48 9.47-5.6 5.18-9.48 12.17-10.92 19.68-.46 2.38-.68 4.6-.68 6.81 0 9.12 3.29 17.73 9.27 24.26 7.08 7.77 16.78 11.7 28.81 11.7h35.58l2-2v-17.89l-2-2h-35.58c-5.41 0-9.4-1.49-12.19-4.57-2.39-2.58-3.7-5.91-3.7-9.41 0-1.98.41-3.9 1.22-5.72.77-1.72 1.83-3.22 3.17-4.47 2.88-2.68 6.43-3.88 11.5-3.88h35.58l2-2v-17.99l-2-1.99z" class="st9"/>
  <linearGradient id="SVGID_00000166663182240148696350000011811403621346679968_" x1="481.871" x2="482.954" y1="608.829" y2="513.535" gradientUnits="userSpaceOnUse">
    <stop offset="0" style="stop-color:#eeeefa"/>
    <stop offset=".095" style="stop-color:#c4c4cf"/>
    <stop offset=".183" style="stop-color:#a4a4af"/>
    <stop offset=".257" style="stop-color:#90909b"/>
    <stop offset=".307" style="stop-color:#898994"/>
    <stop offset=".316" style="stop-color:#9999a4"/>
    <stop offset=".336" style="stop-color:#b3b3bf"/>
    <stop offset=".358" style="stop-color:#c9c9d5"/>
    <stop offset=".385" style="stop-color:#dadae6"/>
    <stop offset=".417" style="stop-color:#e5e5f1"/>
    <stop offset=".463" style="stop-color:#ececf8"/>
    <stop offset=".589" style="stop-color:#eeeefa"/>
    <stop offset=".597" style="stop-color:#ececf7"/>
    <stop offset=".698" style="stop-color:#d1d1db"/>
    <stop offset=".799" style="stop-color:#bebec7"/>
    <stop offset=".9" style="stop-color:#b3b3bb"/>
    <stop offset="1" style="stop-color:#afafb7"/>
  </linearGradient>
  <path d="m506.65 600.67-.98-.78c-.18-.82-.46-1.46-.75-2.13l-3.35-7.64h-38.89l-3.26 7.54c-.27.73-.54 1.46-.63 2.14l-.99.87h-21l-.96-1.29c.32-1.06.63-2 1.15-3.14l24.32-53.86c4.06-8.97 10.61-13.15 20.61-13.15 9.8 0 16.51 4.3 20.51 13.15l24.52 53.86c.52 1.14.83 2.08 1.15 3.14l-.96 1.29h-20.49zm-12.57-27.52-9.85-22.92c-.4-1.01-1.14-1.51-2.2-1.51-1.01 0-1.64.45-2.1 1.51l-9.75 22.92h23.9z" style="fill:url(#SVGID_00000166663182240148696350000011811403621346679968_)"/>
  <path d="M481.93 530.23c9.45 0 15.78 4.12 19.6 12.56l7.5 16.48 17.02 37.39c.5 1.11.8 2.01 1.11 3.02h-20.5c-.2-.9-.5-1.61-.8-2.31l-3.62-8.24h-40.2l-3.52 8.14c-.3.8-.6 1.61-.7 2.41h-21c.3-1.01.6-1.91 1.1-3.02l16.88-37.39 7.44-16.48c3.81-8.44 9.94-12.56 19.69-12.56m-13.27 43.92h26.93l-6.39-14.88-4.06-9.44c-.6-1.51-1.81-2.11-3.11-2.11-1.21 0-2.31.5-3.02 2.11l-4.02 9.44-6.33 14.88m13.27-45.92c-10.3 0-17.34 4.49-21.52 13.74l-7.44 16.48-16.88 37.39c-.54 1.19-.87 2.16-1.2 3.26l1.92 2.57h21l1.98-1.75c.07-.56.31-1.22.57-1.92l2.98-6.89h37.58l3.09 7.05c.26.62.52 1.21.68 1.94l1.95 1.57h20.5l1.92-2.57c-.33-1.1-.66-2.08-1.2-3.27l-17.02-37.39-7.5-16.48c-4.17-9.24-11.18-13.73-21.41-13.73zm-10.24 43.92 5.15-12.09 4.02-9.44c.36-.83.73-.89 1.18-.89.65 0 1.01.25 1.26.85l.02.05 4.06 9.44 5.19 12.09h-20.88v-.01z" class="st9"/>
  <linearGradient id="SVGID_00000134236098206391785100000009570778626430511291_" x1="571.809" x2="572.893" y1="609.888" y2="514.54" gradientUnits="userSpaceOnUse">
    <stop offset="0" style="stop-color:#eeeefa"/>
    <stop offset=".095" style="stop-color:#c4c4cf"/>
    <stop offset=".183" style="stop-color:#a4a4af"/>
    <stop offset=".257" style="stop-color:#90909b"/>
    <stop offset=".307" style="stop-color:#898994"/>
    <stop offset=".316" style="stop-color:#9999a4"/>
    <stop offset=".336" style="stop-color:#b3b3bf"/>
    <stop offset=".358" style="stop-color:#c9c9d5"/>
    <stop offset=".385" style="stop-color:#dadae6"/>
    <stop offset=".417" style="stop-color:#e5e5f1"/>
    <stop offset=".463" style="stop-color:#ececf8"/>
    <stop offset=".589" style="stop-color:#eeeefa"/>
    <stop offset=".597" style="stop-color:#ececf7"/>
    <stop offset=".698" style="stop-color:#d1d1db"/>
    <stop offset=".799" style="stop-color:#bebec7"/>
    <stop offset=".9" style="stop-color:#b3b3bb"/>
    <stop offset="1" style="stop-color:#afafb7"/>
  </linearGradient>
  <path d="m591.89 600.67-.99-.87c-.21-1.54-.31-3.11-.31-4.66v-13.57c0-3.26-1.03-5.03-6.44-5.03h-30.66v23.12l-1 1H534.3l-1-1v-63.72c0-3.37 1.96-5.22 5.52-5.22h48.24c7.88 0 13.8 2.21 18.11 6.74 3.68 3.9 5.7 8.89 5.7 14.06 0 3.04-.5 5.77-1.48 8.12-.95 2.28-2.38 4.25-4.25 5.87 4.17 2.97 5.83 7.07 5.83 14.15v13.57c0 2.96.1 4.51.3 6.33l-.99 1.1h-18.39zm-7.24-41.59c1.13 0 2.09-.22 2.91-.68.57-.32 1.05-.7 1.45-1.17.69-.87 1.07-1.87 1.07-2.87 0-1.21-.44-2.34-1.21-3.11-.93-1.02-2.33-1.52-4.22-1.52H554c-.37 0-.51.08-.51.51v8.85h31.16z" style="fill:url(#SVGID_00000134236098206391785100000009570778626430511291_)"/>
  <path d="M587.06 531.74c8.34 0 13.67 2.51 17.39 6.43 3.32 3.52 5.43 8.24 5.43 13.37 0 2.71-.4 5.34-1.4 7.73-1 2.41-2.61 4.57-5.03 6.34 4.52 2.71 6.53 6.33 6.53 14.07v13.57c0 2.91.1 4.52.3 6.43h-18.39c-.2-1.51-.3-3.02-.3-4.52v-13.57c0-4.32-2.11-6.03-7.44-6.03h-31.66v24.12H534.3V535.97c0-2.81 1.51-4.22 4.52-4.22h48.24m-34.57 28.33h32.16c1.43 0 2.51-.31 3.4-.81.67-.37 1.25-.84 1.73-1.4.8-1.01 1.31-2.21 1.31-3.52 0-1.41-.5-2.81-1.51-3.82-1-1.1-2.61-1.81-4.92-1.81H554c-1 0-1.51.6-1.51 1.51v9.85m34.57-30.34h-48.24c-4.15 0-6.52 2.27-6.52 6.22V599.67l2 2h18.19l2-2v-22.12h29.66c5.06 0 5.44 1.6 5.44 4.03v13.57c0 1.59.11 3.2.32 4.79l1.98 1.74h18.39l1.99-2.21c-.19-1.78-.29-3.3-.29-6.22v-13.57c0-6.89-1.52-11.12-5.28-14.22 1.55-1.55 2.77-3.36 3.62-5.41 1.03-2.47 1.56-5.33 1.56-8.5 0-5.42-2.12-10.66-5.97-14.74-4.52-4.77-10.68-7.07-18.85-7.07zm-32.57 20.98h30.16c1.09 0 2.58.2 3.44 1.16l.07.07c.59.59.92 1.46.92 2.4 0 .96-.46 1.75-.85 2.25-.32.37-.69.67-1.15.92-.69.38-1.46.56-2.43.56h-30.16v-7.36z" class="st9"/>
  <linearGradient id="SVGID_00000095313957556957221190000017815226179398593676_" x1="699.346" x2="700.429" y1="611.378" y2="516.04" gradientUnits="userSpaceOnUse">
    <stop offset="0" style="stop-color:#eeeefa"/>
    <stop offset=".095" style="stop-color:#c4c4cf"/>
    <stop offset=".183" style="stop-color:#a4a4af"/>
    <stop offset=".257" style="stop-color:#90909b"/>
    <stop offset=".307" style="stop-color:#898994"/>
    <stop offset=".316" style="stop-color:#9999a4"/>
    <stop offset=".336" style="stop-color:#b3b3bf"/>
    <stop offset=".358" style="stop-color:#c9c9d5"/>
    <stop offset=".385" style="stop-color:#dadae6"/>
    <stop offset=".417" style="stop-color:#e5e5f1"/>
    <stop offset=".463" style="stop-color:#ececf8"/>
    <stop offset=".589" style="stop-color:#eeeefa"/>
    <stop offset=".597" style="stop-color:#ececf7"/>
    <stop offset=".698" style="stop-color:#d1d1db"/>
    <stop offset=".799" style="stop-color:#bebec7"/>
    <stop offset=".9" style="stop-color:#b3b3bb"/>
    <stop offset="1" style="stop-color:#afafb7"/>
  </linearGradient>
  <path d="m713.41 600.67-.75-.34c-.68-.77-1.58-1.6-2.91-2.71l-30.92-25.86v27.91l-1 1h-18.39l-1-1v-67.94l1-1h18.39l1 1v25.74l29.32-23.71c.96-.77 2-1.81 2.65-2.65l.79-.39h25.43l.83 1.55c-.47.71-1.32 1.46-2 2.02l-37.41 28.96c-.22.16-.22.19-.22.31 0 .09 0 .13.01.14.01 0 .07.06.22.18l40.1 32.46c.94.83 1.88 1.67 2.73 2.62l-.75 1.66h-27.12z" style="fill:url(#SVGID_00000095313957556957221190000017815226179398593676_)"/>
  <path d="M737.03 531.74c-.4.6-1.21 1.31-1.81 1.81l-33.23 25.72-4.16 3.22c-.4.3-.6.6-.6 1.1 0 .5.1.7.6 1.11l40.1 32.46c.9.8 1.81 1.61 2.61 2.51H713.4c-.8-.9-1.81-1.81-3.01-2.81l-32.56-27.24v30.05h-18.39v-67.93h18.39V559.57l.38-.3 30.58-24.72c1-.81 2.11-1.91 2.81-2.82h25.43m0-1.99H711.6l-1.58.77c-.6.78-1.6 1.77-2.49 2.48l-27.7 22.39v-23.65l-2-2h-18.39l-2 2v67.93l2 2h18.39l2-2v-25.77l29.28 24.49c1.29 1.07 2.15 1.88 2.8 2.61l1.5.67h27.14l1.49-3.33c-.89-1-1.85-1.85-2.78-2.68l-.07-.06-39.53-32 3.56-2.75 33.23-25.72.05-.04c.74-.61 1.65-1.42 2.2-2.24l-1.67-3.1z" class="st9"/>
  <linearGradient id="SVGID_00000021098721390861457970000000219271781492150664_" x1="778.321" x2="779.404" y1="612.307" y2="516.962" gradientUnits="userSpaceOnUse">
    <stop offset="0" style="stop-color:#eeeefa"/>
    <stop offset=".095" style="stop-color:#c4c4cf"/>
    <stop offset=".183" style="stop-color:#a4a4af"/>
    <stop offset=".257" style="stop-color:#90909b"/>
    <stop offset=".307" style="stop-color:#898994"/>
    <stop offset=".316" style="stop-color:#9999a4"/>
    <stop offset=".336" style="stop-color:#b3b3bf"/>
    <stop offset=".358" style="stop-color:#c9c9d5"/>
    <stop offset=".385" style="stop-color:#dadae6"/>
    <stop offset=".417" style="stop-color:#e5e5f1"/>
    <stop offset=".463" style="stop-color:#ececf8"/>
    <stop offset=".589" style="stop-color:#eeeefa"/>
    <stop offset=".597" style="stop-color:#ececf7"/>
    <stop offset=".698" style="stop-color:#d1d1db"/>
    <stop offset=".799" style="stop-color:#bebec7"/>
    <stop offset=".9" style="stop-color:#b3b3bb"/>
    <stop offset="1" style="stop-color:#afafb7"/>
  </linearGradient>
  <path d="M752.62 600.67c-6.9 0-10.55-3.61-10.55-10.45v-49.34c0-6.64 3.68-10.15 10.65-10.15h61.81l1 1v17.99l-1 1h-51.65c-.43 0-.61.03-.61.71v6.74h51.96l1 1v13.06l-1 1h-51.96v7.24c0 .81.2.81.61.81h51.65l1 1v17.39l-1 1h-61.91z" style="fill:url(#SVGID_00000021098721390861457970000000219271781492150664_)"/>
  <path d="M814.53 531.74v17.99h-51.65c-1.11 0-1.61.6-1.61 1.71v7.74h52.96v13.07h-52.96v8.24c0 1.21.5 1.81 1.61 1.81h51.65v17.39h-61.91c-6.33 0-9.55-3.11-9.55-9.45v-49.35c0-6.13 3.22-9.15 9.65-9.15h61.81m0-2h-61.81c-7.51 0-11.65 3.96-11.65 11.15v49.35c0 7.38 4.1 11.45 11.55 11.45h61.91l2-2V582.3l-2-2h-51.26v-6.05h50.96l2-2v-13.07l-2-2h-50.96v-5.45h51.26l2-2v-17.99l-2-2z" class="st9"/>
  <linearGradient id="SVGID_00000067916295048470223440000012590446769276189073_" x1="860.024" x2="861.107" y1="613.269" y2="517.92" gradientUnits="userSpaceOnUse">
    <stop offset="0" style="stop-color:#eeeefa"/>
    <stop offset=".095" style="stop-color:#c4c4cf"/>
    <stop offset=".183" style="stop-color:#a4a4af"/>
    <stop offset=".257" style="stop-color:#90909b"/>
    <stop offset=".307" style="stop-color:#898994"/>
    <stop offset=".316" style="stop-color:#9999a4"/>
    <stop offset=".336" style="stop-color:#b3b3bf"/>
    <stop offset=".358" style="stop-color:#c9c9d5"/>
    <stop offset=".385" style="stop-color:#dadae6"/>
    <stop offset=".417" style="stop-color:#e5e5f1"/>
    <stop offset=".463" style="stop-color:#ececf8"/>
    <stop offset=".589" style="stop-color:#eeeefa"/>
    <stop offset=".597" style="stop-color:#ececf7"/>
    <stop offset=".698" style="stop-color:#d1d1db"/>
    <stop offset=".799" style="stop-color:#bebec7"/>
    <stop offset=".9" style="stop-color:#b3b3bb"/>
    <stop offset="1" style="stop-color:#afafb7"/>
  </linearGradient>
  <path d="m851.22 600.67-1-1V568.4l-30.59-33.68c-1-1.1-1.51-1.71-1.89-2.59l.92-1.39h22.41l.93.63c.06.16.44 1.03 1.38 1.97l17.11 18.63c.32.32.47.38.67.38.2 0 .35-.06.7-.41l16.95-18.56c.88-.88 1.39-1.68 1.52-2.01l.93-.63h22.01l.87 1.5c-.47.83-.96 1.41-1.94 2.49l-31.6 34.89v30.07l-1 1h-18.38z" style="fill:url(#SVGID_00000067916295048470223440000012590446769276189073_)"/>
  <path d="M903.28 531.74c-.4.7-.8 1.21-1.81 2.31l-22.84 25.22-9.01 9.95v30.45h-18.39v-31.66l-7.94-8.75-22.91-25.22c-1-1.1-1.41-1.61-1.71-2.31h22.41c.2.5.7 1.41 1.61 2.31l17.08 18.59c.4.4.8.7 1.41.7s1-.3 1.41-.7l16.98-18.59c.9-.9 1.51-1.81 1.71-2.31h22m0-1.99h-22.01l-1.86 1.26c-.08.2-.51.88-1.26 1.64l-.06.07-16.91 18.52-17.02-18.52-.06-.06c-.83-.82-1.13-1.55-1.16-1.63l-1.86-1.26h-22.41l-1.84 2.79c.45 1.05 1.08 1.79 2.07 2.87l22.91 25.22 7.42 8.17v30.88l2 2h18.39l2-2v-29.68l8.5-9.38 22.84-25.22c1.01-1.11 1.55-1.76 2.06-2.66l-1.74-3.01z" class="st9"/>
  <linearGradient id="SVGID_00000013185301230570893940000018062452143157671581_" x1="153.726" x2="153.989" y1="558.074" y2="599.659" gradientUnits="userSpaceOnUse">
    <stop offset="0" style="stop-color:#004"/>
    <stop offset=".062" style="stop-color:#03064a"/>
    <stop offset=".349" style="stop-color:#0e1e61"/>
    <stop offset=".614" style="stop-color:#152d6f"/>
    <stop offset=".835" style="stop-color:#173274"/>
  </linearGradient>
  <path d="M174.65 574.35H143.6c-.7 0-1.1-.5-1.1-1.11 0-.5.2-.8.7-1.1l18.05-12.87h-26.63l-13.33 9.75c-2.51 1.81-3.62 2.91-4.52 4.12-1.61 2.11-2.11 4.22-2.11 6.23 0 2.91.8 5.53 2.51 7.44 1.91 2.11 4.93 3.42 10.15 3.42h47.33v9.45h18.29v-40.4h-18.29v15.07z" style="fill:url(#SVGID_00000013185301230570893940000018062452143157671581_)"/>
  <linearGradient id="SVGID_00000148627476945774861490000010397179893427303304_" x1="223.27" x2="223.533" y1="557.634" y2="599.218" gradientUnits="userSpaceOnUse">
    <stop offset="0" style="stop-color:#004"/>
    <stop offset=".062" style="stop-color:#03064a"/>
    <stop offset=".349" style="stop-color:#0e1e61"/>
    <stop offset=".614" style="stop-color:#152d6f"/>
    <stop offset=".835" style="stop-color:#173274"/>
  </linearGradient>
  <path d="M214.36 559.27h18.09v40.4h-18.09z" style="fill:url(#SVGID_00000148627476945774861490000010397179893427303304_)"/>
  <linearGradient id="SVGID_00000133511295371673674170000005261868863838038155_" x1="278.082" x2="278.345" y1="557.287" y2="598.871" gradientUnits="userSpaceOnUse">
    <stop offset="0" style="stop-color:#004"/>
    <stop offset=".062" style="stop-color:#03064a"/>
    <stop offset=".349" style="stop-color:#0e1e61"/>
    <stop offset=".614" style="stop-color:#152d6f"/>
    <stop offset=".835" style="stop-color:#173274"/>
  </linearGradient>
  <path d="M271.05 559.37c-2.71 1.71-4.12 3.22-4.12 6.03 0 3.12 1.31 5.93 6.63 5.93h13.67c4.52 0 6.13 2.31 6.13 5.43 0 3.12-1.61 5.53-6.13 5.53h-45.02v17.39h50.45c13.87 0 21.71-9.55 21.71-20.1 0-12.36-7.24-18.39-17.69-19.5-.5-.1-.7-.4-.7-.8h-24.76l-.17.09z" style="fill:url(#SVGID_00000133511295371673674170000005261868863838038155_)"/>
  <linearGradient id="SVGID_00000026857082725054739290000004370457325308197291_" x1="396.776" x2="394.407" y1="560.086" y2="602.461" gradientUnits="userSpaceOnUse">
    <stop offset="0" style="stop-color:#4f4f5b"/>
    <stop offset=".111" style="stop-color:#585863"/>
    <stop offset=".292" style="stop-color:#707079"/>
    <stop offset=".518" style="stop-color:#97979e"/>
    <stop offset=".779" style="stop-color:#ccccd0"/>
    <stop offset="1" style="stop-color:#fff"/>
  </linearGradient>
  <path d="M359.71 565.7c0 8.95 3.32 16.98 8.74 22.91 6.23 6.83 15.17 11.05 27.34 11.05h35.58v-17.89h-35.58c-6.43 0-10.75-2.01-13.67-5.23a15.828 15.828 0 0 1-4.22-10.75c0-2.3.5-4.52 1.4-6.54h-18.94c-.41 2.11-.65 4.25-.65 6.45z" style="fill:url(#SVGID_00000026857082725054739290000004370457325308197291_)"/>
  <linearGradient id="SVGID_00000071519114653760834450000016958263451237048756_" x1="481.721" x2="481.98" y1="559.099" y2="599.959" gradientUnits="userSpaceOnUse">
    <stop offset="0" style="stop-color:#4f4f5b"/>
    <stop offset=".111" style="stop-color:#585863"/>
    <stop offset=".292" style="stop-color:#707079"/>
    <stop offset=".518" style="stop-color:#97979e"/>
    <stop offset=".779" style="stop-color:#ccccd0"/>
    <stop offset="1" style="stop-color:#fff"/>
  </linearGradient>
  <path d="M495.6 574.15h-26.93l6.33-14.88h-20.2l-16.88 37.39c-.5 1.11-.8 2.01-1.1 3.02h21c.1-.8.4-1.61.7-2.41l3.52-8.14h40.2l3.62 8.24c.3.7.6 1.41.8 2.31h20.5c-.3-1.01-.6-1.91-1.11-3.02l-17.02-37.39H489.2l6.4 14.88z" style="fill:url(#SVGID_00000071519114653760834450000016958263451237048756_)"/>
  <linearGradient id="SVGID_00000095315574606614225000000015127216706233780915_" x1="572.034" x2="572.293" y1="559.031" y2="599.913" gradientUnits="userSpaceOnUse">
    <stop offset="0" style="stop-color:#4f4f5b"/>
    <stop offset=".111" style="stop-color:#585863"/>
    <stop offset=".292" style="stop-color:#707079"/>
    <stop offset=".518" style="stop-color:#97979e"/>
    <stop offset=".779" style="stop-color:#ccccd0"/>
    <stop offset="1" style="stop-color:#fff"/>
  </linearGradient>
  <path d="M584.65 560.08h-32.16v-.81H534.3v40.4h18.19v-24.12h31.66c5.33 0 7.44 1.71 7.44 6.03v13.57c0 1.51.1 3.02.3 4.52h18.39c-.2-1.91-.3-3.52-.3-6.43v-13.57c0-7.74-2.01-11.36-6.53-14.07 2.42-1.76 4.03-3.93 5.03-6.34h-20.43c-.89.5-1.97.82-3.4.82z" style="fill:url(#SVGID_00000095315574606614225000000015127216706233780915_)"/>
  <linearGradient id="SVGID_00000087403821746192987160000001464919962754637974_" x1="699.738" x2="699.997" y1="559.015" y2="599.93" gradientUnits="userSpaceOnUse">
    <stop offset="0" style="stop-color:#4f4f5b"/>
    <stop offset=".111" style="stop-color:#585863"/>
    <stop offset=".292" style="stop-color:#707079"/>
    <stop offset=".518" style="stop-color:#97979e"/>
    <stop offset=".779" style="stop-color:#ccccd0"/>
    <stop offset="1" style="stop-color:#fff"/>
  </linearGradient>
  <path d="M677.84 559.57v-.3h-18.39v40.4h18.39v-30.05l32.56 27.24c1.21 1 2.21 1.91 3.01 2.81h27.14c-.8-.9-1.71-1.71-2.61-2.51l-40.1-32.46c-.5-.4-.6-.6-.6-1.11 0-.5.2-.8.6-1.1l4.16-3.22h-23.78l-.38.3z" style="fill:url(#SVGID_00000087403821746192987160000001464919962754637974_)"/>
  <linearGradient id="SVGID_00000000936665610538233680000005329010015308267689_" x1="778.626" x2="778.885" y1="559.045" y2="599.899" gradientUnits="userSpaceOnUse">
    <stop offset="0" style="stop-color:#4f4f5b"/>
    <stop offset=".111" style="stop-color:#585863"/>
    <stop offset=".292" style="stop-color:#707079"/>
    <stop offset=".518" style="stop-color:#97979e"/>
    <stop offset=".779" style="stop-color:#ccccd0"/>
    <stop offset="1" style="stop-color:#fff"/>
  </linearGradient>
  <path d="M743.07 590.23c0 6.33 3.22 9.45 9.55 9.45h61.91v-17.39h-51.65c-1.11 0-1.61-.6-1.61-1.81v-8.24h52.96v-12.97h-71.15v30.96z" style="fill:url(#SVGID_00000000936665610538233680000005329010015308267689_)"/>
  <linearGradient id="SVGID_00000066477208419582075420000005100959867066587782_" x1="860.952" x2="861.208" y1="559.158" y2="599.726" gradientUnits="userSpaceOnUse">
    <stop offset="0" style="stop-color:#4f4f5b"/>
    <stop offset=".111" style="stop-color:#585863"/>
    <stop offset=".292" style="stop-color:#707079"/>
    <stop offset=".518" style="stop-color:#97979e"/>
    <stop offset=".779" style="stop-color:#ccccd0"/>
    <stop offset="1" style="stop-color:#fff"/>
  </linearGradient>
  <path d="m843.28 559.27 7.94 8.75v31.65h18.39v-30.45l9.02-9.95z" style="fill:url(#SVGID_00000066477208419582075420000005100959867066587782_)"/>
  <path d="M128.69 631.97h-8.52l-1.11 6.37h9.97l-.33 1.88h-12.77l3.1-17.79h12.62l-.33 1.89h-9.83l-1 5.76h8.53l-.33 1.89zM142.89 636.88l.09.01 9.14-14.47h3.49l-3.1 17.79h-2.81l2.32-13.32-.09-.02-8.6 13.34h-1.95l-4.06-13.79h-.09l-2.41 13.79h-2.81l3.1-17.79h3.69l4.09 14.46zM170.12 631.97h-8.52l-1.11 6.37h9.97l-.33 1.88h-12.77l3.1-17.79h12.62l-.33 1.89h-9.83l-1 5.76h8.53l-.33 1.89zM177.59 632.51l-1.34 7.71h-2.81l3.1-17.78h7.09c2.18 0 3.82.44 4.91 1.31 1.09.87 1.49 2.12 1.2 3.75-.17.96-.59 1.77-1.27 2.44-.67.66-1.59 1.19-2.73 1.57 1.05.33 1.78.85 2.18 1.57.4.72.51 1.59.34 2.61l-.3 1.67c-.1.58-.12 1.08-.05 1.51.07.43.26.78.56 1.06l-.06.29h-2.89c-.32-.28-.49-.68-.5-1.21-.01-.53.03-1.09.13-1.67l.28-1.63c.17-1-.02-1.79-.56-2.35-.55-.57-1.37-.85-2.48-.85h-4.8zm.33-1.9h4.02c1.52 0 2.69-.26 3.5-.79.82-.53 1.32-1.31 1.51-2.35.18-1.03-.02-1.82-.59-2.35s-1.59-.8-3.04-.8h-4.29l-1.11 6.29zM207.32 637.82c-.61.66-1.57 1.27-2.89 1.82s-2.95.83-4.88.83c-2.31 0-4.15-.69-5.52-2.06-1.37-1.37-1.87-3.13-1.49-5.26l.64-3.67c.39-2.24 1.45-4.02 3.18-5.34 1.73-1.32 3.8-1.98 6.21-1.98 2.21 0 3.92.53 5.12 1.6 1.2 1.07 1.64 2.4 1.32 4.01l-.04.07h-2.69c.19-1.12-.06-2.03-.75-2.73-.69-.7-1.79-1.06-3.3-1.06-1.52 0-2.87.51-4.05 1.54-1.18 1.03-1.91 2.31-2.17 3.86l-.64 3.69c-.29 1.64-.02 2.95.83 3.95.85.99 2.07 1.49 3.69 1.49 1.17 0 2.15-.14 2.95-.42s1.4-.6 1.8-.96l.7-4.01h-4.7l.33-1.88h7.5l-1.15 6.51zM224.51 631.97H216l-1.11 6.37h9.97l-.33 1.88h-12.77l3.1-17.79h12.62l-.33 1.89h-9.83l-1 5.76h8.53l-.34 1.89zM243.52 640.22h-2.81l-7.62-13.6-.09.01-2.36 13.59h-2.81l3.1-17.79h2.81l7.62 13.59.09-.01 2.36-13.58h2.81l-3.1 17.79zM264.16 634.52l.03.07c-.27 1.74-1.19 3.15-2.78 4.24-1.59 1.09-3.54 1.64-5.87 1.64-2.25 0-4.01-.72-5.29-2.16-1.28-1.44-1.72-3.24-1.33-5.41l.56-3.17c.39-2.27 1.44-4.1 3.15-5.49 1.71-1.39 3.75-2.08 6.12-2.08 2.26 0 4.01.54 5.25 1.62 1.24 1.08 1.69 2.5 1.35 4.25l-.04.07h-2.69c.22-1.3-.03-2.29-.75-2.99-.72-.7-1.87-1.05-3.45-1.05-1.5 0-2.83.55-3.98 1.64s-1.87 2.43-2.14 4.01l-.56 3.19c-.3 1.69-.09 3.05.65 4.11.74 1.05 1.9 1.58 3.49 1.58 1.5 0 2.75-.37 3.76-1.09 1.01-.73 1.62-1.72 1.85-2.98h2.67zM275.15 631.47l6.98-9.04h3.2l-9.28 11.54-1.1 6.26h-2.79l1.13-6.44-5.18-11.35h3.2l3.84 9.03zM295.67 638.34h10.11l-.33 1.88h-12.92l3.1-17.79h2.81l-2.77 15.91zM324.76 632.91c-.41 2.26-1.51 4.09-3.3 5.48-1.79 1.39-3.96 2.08-6.49 2.08-2.33 0-4.16-.72-5.46-2.17s-1.77-3.25-1.39-5.4l.56-3.17c.39-2.26 1.46-4.08 3.2-5.48s3.84-2.1 6.29-2.1c2.4 0 4.29.73 5.65 2.18 1.37 1.45 1.87 3.25 1.5 5.4l-.56 3.18zm-2.25-3.19c.28-1.69.01-3.04-.83-4.05-.84-1.01-2.13-1.52-3.87-1.52-1.57 0-2.95.53-4.14 1.58-1.19 1.05-1.92 2.38-2.2 3.99l-.56 3.19c-.3 1.7-.06 3.06.73 4.08s2.01 1.52 3.66 1.52c1.67 0 3.12-.53 4.36-1.58 1.23-1.05 2-2.39 2.29-4.02l.56-3.19zM343.3 634.52l.03.07c-.27 1.74-1.19 3.15-2.78 4.24-1.59 1.09-3.54 1.64-5.87 1.64-2.25 0-4.01-.72-5.29-2.16-1.28-1.44-1.72-3.24-1.33-5.41l.56-3.17c.39-2.27 1.44-4.1 3.15-5.49 1.71-1.39 3.75-2.08 6.12-2.08 2.26 0 4.01.54 5.25 1.62 1.24 1.08 1.69 2.5 1.35 4.25l-.04.07h-2.69c.22-1.3-.03-2.29-.75-2.99-.72-.7-1.87-1.05-3.45-1.05-1.5 0-2.83.55-3.98 1.64s-1.87 2.43-2.14 4.01l-.56 3.19c-.3 1.69-.09 3.05.65 4.11.74 1.05 1.9 1.58 3.49 1.58 1.5 0 2.75-.37 3.76-1.09 1.01-.73 1.62-1.72 1.85-2.98h2.67zM351.61 632.18h-1.67l-1.4 8.04h-2.81l3.1-17.79h2.81l-1.35 7.74h1.82l7.76-7.74h3.45l.03.06-9.33 8.85 6.58 8.88h-3.2l-5.79-8.04zM375.62 636.14c.15-.91-.09-1.65-.73-2.21s-1.85-1.1-3.65-1.6c-2.18-.57-3.77-1.28-4.75-2.14s-1.34-2.07-1.06-3.65c.24-1.38 1.01-2.46 2.33-3.22 1.31-.76 2.94-1.14 4.86-1.14 2.23 0 3.97.48 5.21 1.45s1.69 2.3 1.35 3.98l-.03.07h-2.69c.18-1.07-.11-1.94-.87-2.61-.76-.67-1.87-1.01-3.32-1.01-1.07 0-1.99.23-2.74.7-.75.47-1.19 1.05-1.3 1.74-.17.99.03 1.73.61 2.23.57.5 1.82 1.03 3.72 1.58 2.23.63 3.83 1.36 4.81 2.19s1.32 2.04 1.05 3.6c-.26 1.44-1.06 2.53-2.4 3.26-1.34.73-3.03 1.1-5.05 1.1-2.22 0-4.08-.44-5.59-1.32-1.5-.88-2.07-2.25-1.7-4.11l.04-.07h2.68c-.23 1.3.16 2.23 1.15 2.79 1 .55 2.24.83 3.74.83 1.09 0 2.05-.23 2.88-.69.84-.45 1.32-1.04 1.45-1.75zM392.01 636.88l.09.01 9.14-14.47h3.49l-3.1 17.79h-2.81l2.32-13.32-.09-.02-8.6 13.34h-1.95l-4.06-13.79h-.09l-2.41 13.79h-2.81l3.1-17.79h3.69l4.09 14.46zM409.58 640.22h-2.82l3.1-17.79h2.82l-3.1 17.79zM431.58 624.32h-6.83l-2.78 15.9h-2.81l2.78-15.9h-6.75l.33-1.89h16.39l-.33 1.89zM447.43 640.22h-2.81l1.37-7.86h-10.07l-1.37 7.86h-2.81l3.1-17.79h2.81l-1.41 8.04h10.07l1.41-8.04h2.81l-3.1 17.79z"/>
  <linearGradient id="SVGID_00000077311734000450575780000017452084258736915871_" x1="780.812" x2="469.715" y1="631.692" y2="631.692" gradientUnits="userSpaceOnUse">
    <stop offset=".025" style="stop-color:#004"/>
    <stop offset=".409" style="stop-color:#0c1a5d"/>
    <stop offset=".835" style="stop-color:#173274"/>
  </linearGradient>
  <path d="M468.66 631.69h312.15" style="fill:url(#SVGID_00000077311734000450575780000017452084258736915871_)"/>
  <linearGradient id="SVGID_00000161625508314605877160000011514847383630174610_" x1="780.812" x2="469.715" y1="631.692" y2="631.692" gradientUnits="userSpaceOnUse">
    <stop offset=".025" style="stop-color:#004"/>
    <stop offset=".409" style="stop-color:#0c1a5d"/>
    <stop offset=".835" style="stop-color:#173274"/>
  </linearGradient>
  <path d="m468.66 628.67 312.15 3.02-312.15 3.03z" style="fill:url(#SVGID_00000161625508314605877160000011514847383630174610_)"/>
  <linearGradient id="SVGID_00000129202912937334287760000002077375374412706454_" x1="88.34" x2="921.573" y1="490.245" y2="490.245" gradientUnits="userSpaceOnUse">
    <stop offset="0" style="stop-color:#eeeefa"/>
    <stop offset=".095" style="stop-color:#c4c4cf"/>
    <stop offset=".183" style="stop-color:#a4a4af"/>
    <stop offset=".257" style="stop-color:#90909b"/>
    <stop offset=".307" style="stop-color:#898994"/>
    <stop offset=".316" style="stop-color:#9999a4"/>
    <stop offset=".336" style="stop-color:#b3b3bf"/>
    <stop offset=".358" style="stop-color:#c9c9d5"/>
    <stop offset=".385" style="stop-color:#dadae6"/>
    <stop offset=".417" style="stop-color:#e5e5f1"/>
    <stop offset=".463" style="stop-color:#ececf8"/>
    <stop offset=".589" style="stop-color:#eeeefa"/>
    <stop offset=".597" style="stop-color:#ececf7"/>
    <stop offset=".698" style="stop-color:#d1d1db"/>
    <stop offset=".799" style="stop-color:#bebec7"/>
    <stop offset=".9" style="stop-color:#b3b3bb"/>
    <stop offset="1" style="stop-color:#afafb7"/>
  </linearGradient>
  <path d="M921.57 491.06c-58.43 5.66-119.79-5.7-183.72-32.09-3.81-1.57-7.7-2.96-11.67-4.04-117.48-31.91-230.54-32.81-336.78 40.86-.76.53-1.67.8-2.59.77-143.4-4.11-260.55 4.13-298.46 49.61 72.69-35.29 198.8-43.18 348.23-39.1l-32.94-5.7c90.95-62.15 192.47-64.32 298.6-40.41 2.1.47 3.07 2.92 1.87 4.71l-18.62 27.73c-.67.99-1.76 1.62-2.96 1.69l-158.36 8.9 325.13 2.08c42.5-1.55 65.03-6.85 72.27-15.01z" style="fill:url(#SVGID_00000129202912937334287760000002077375374412706454_);stroke:#eeeefa;stroke-width:.25;stroke-miterlimit:10"/>
  <linearGradient id="SVGID_00000089570641295552769020000012639528168334394283_" x1="695.757" x2="523.627" y1="475.897" y2="470.633" gradientUnits="userSpaceOnUse">
    <stop offset=".025" style="stop-color:#004"/>
    <stop offset=".409" style="stop-color:#0c1a5d"/>
    <stop offset=".835" style="stop-color:#173274"/>
  </linearGradient>
  <path d="m586.66 495.83 91.5-4.23c1.14-.05 2.19-.61 2.88-1.52l17.11-22.73c1.35-1.79.38-4.39-1.82-4.85-94.35-19.77-176.66-19.38-237.9 16.24 63.68-27.68 137.51-31.04 219.15-15.66 1.11.21 1.71 1.43 1.19 2.43l-9.13 17.75a4.52 4.52 0 0 1-3.42 2.4l-79.56 10.17z" style="fill:url(#SVGID_00000089570641295552769020000012639528168334394283_)"/>
</svg>