<svg xmlns="http://www.w3.org/2000/svg" width="1440" height="1440">
  <defs>
    <linearGradient id="a" x1="0" x2="1" y1="0" y2="0" gradientTransform="translate(347.263 652.556) scale(383.7135)" gradientUnits="userSpaceOnUse" spreadMethod="pad">
      <stop offset="0" style="stop-opacity:1;stop-color:#cf800f"/>
      <stop offset=".055" style="stop-opacity:1;stop-color:#cf800f"/>
      <stop offset=".176" style="stop-opacity:1;stop-color:#dfa221"/>
      <stop offset=".267" style="stop-opacity:1;stop-color:#dfa221"/>
      <stop offset=".455" style="stop-opacity:1;stop-color:#cf9c12"/>
      <stop offset=".525" style="stop-opacity:1;stop-color:#cf9c12"/>
      <stop offset=".678" style="stop-opacity:1;stop-color:#decd22"/>
      <stop offset=".952" style="stop-opacity:1;stop-color:#f18d22"/>
      <stop offset="1" style="stop-opacity:1;stop-color:#f18d22"/>
    </linearGradient>
    <linearGradient id="b" x1="0" x2="1" y1="0" y2="0" gradientTransform="translate(529.336 672.89) scale(203.40125)" gradientUnits="userSpaceOnUse" spreadMethod="pad">
      <stop offset="0" style="stop-opacity:1;stop-color:#cf800f"/>
      <stop offset=".055" style="stop-opacity:1;stop-color:#cf800f"/>
      <stop offset=".176" style="stop-opacity:1;stop-color:#dfa221"/>
      <stop offset=".267" style="stop-opacity:1;stop-color:#dfa221"/>
      <stop offset=".455" style="stop-opacity:1;stop-color:#cf9c12"/>
      <stop offset=".525" style="stop-opacity:1;stop-color:#cf9c12"/>
      <stop offset=".678" style="stop-opacity:1;stop-color:#decd22"/>
      <stop offset=".952" style="stop-opacity:1;stop-color:#f18d22"/>
      <stop offset="1" style="stop-opacity:1;stop-color:#f18d22"/>
    </linearGradient>
    <linearGradient id="c" x1="0" x2="1" y1="0" y2="0" gradientTransform="translate(423.8 655.352) scale(134.07137)" gradientUnits="userSpaceOnUse" spreadMethod="pad">
      <stop offset="0" style="stop-opacity:1;stop-color:#cf800f"/>
      <stop offset=".055" style="stop-opacity:1;stop-color:#cf800f"/>
      <stop offset=".176" style="stop-opacity:1;stop-color:#dfa221"/>
      <stop offset=".267" style="stop-opacity:1;stop-color:#dfa221"/>
      <stop offset=".455" style="stop-opacity:1;stop-color:#cf9c12"/>
      <stop offset=".525" style="stop-opacity:1;stop-color:#cf9c12"/>
      <stop offset=".678" style="stop-opacity:1;stop-color:#decd22"/>
      <stop offset=".952" style="stop-opacity:1;stop-color:#f18d22"/>
      <stop offset="1" style="stop-opacity:1;stop-color:#f18d22"/>
    </linearGradient>
    <linearGradient id="e" x1="0" x2="1" y1="0" y2="0" gradientTransform="translate(230.745 264.477) scale(96.32978)" gradientUnits="userSpaceOnUse" spreadMethod="pad">
      <stop offset="0" style="stop-opacity:1;stop-color:#d88514"/>
      <stop offset=".055" style="stop-opacity:1;stop-color:#d88514"/>
      <stop offset=".176" style="stop-opacity:1;stop-color:#e6a821"/>
      <stop offset=".267" style="stop-opacity:1;stop-color:#e6a821"/>
      <stop offset=".455" style="stop-opacity:1;stop-color:#d7a413"/>
      <stop offset=".525" style="stop-opacity:1;stop-color:#d7a413"/>
      <stop offset=".678" style="stop-opacity:1;stop-color:#e7d521"/>
      <stop offset=".952" style="stop-opacity:1;stop-color:#f39422"/>
      <stop offset="1" style="stop-opacity:1;stop-color:#f39422"/>
    </linearGradient>
    <linearGradient id="f" x1="0" x2="1" y1="0" y2="0" gradientTransform="translate(752.925 264.477) scale(96.32978)" gradientUnits="userSpaceOnUse" spreadMethod="pad">
      <stop offset="0" style="stop-opacity:1;stop-color:#d88514"/>
      <stop offset=".055" style="stop-opacity:1;stop-color:#d88514"/>
      <stop offset=".176" style="stop-opacity:1;stop-color:#e6a821"/>
      <stop offset=".267" style="stop-opacity:1;stop-color:#e6a821"/>
      <stop offset=".455" style="stop-opacity:1;stop-color:#d7a413"/>
      <stop offset=".525" style="stop-opacity:1;stop-color:#d7a413"/>
      <stop offset=".678" style="stop-opacity:1;stop-color:#e7d521"/>
      <stop offset=".952" style="stop-opacity:1;stop-color:#f39422"/>
      <stop offset="1" style="stop-opacity:1;stop-color:#f39422"/>
    </linearGradient>
    <clipPath id="d" clipPathUnits="userSpaceOnUse">
      <path d="M0 1080h1080V0H0Z"/>
    </clipPath>
    <clipPath id="g" clipPathUnits="userSpaceOnUse">
      <path d="M0 1080h1080V0H0Z"/>
    </clipPath>
  </defs>
  <path d="M496.049 847.917c-85.728-23.267-148.786-101.62-148.786-194.714 0-95.408 66.229-175.338 155.218-196.35a202.27 202.27 0 0 1 46.537-5.404c5.662 0 11.267.245 16.811.703 29.908 2.467 57.965 11.454 82.747 25.543a203.055 203.055 0 0 1 8.275 4.97l.522.314c9.954 5.973 19.067 13.195 27.288 20.872a202.89 202.89 0 0 1 29.25 33.081 201.553 201.553 0 0 1 17.065 29.018 4.108 4.108 0 0 1-3.637 2.149H588.475c-2.981 0-4.426-1.531-5.133-2.04-.847-.613-1.524-1.59-2.028-2.925a350.024 350.024 0 0 1-5.975-15.787c-1.765-5.045-3.113-9.464-4.044-13.249-.339-1.381-.264-2.675.225-3.891.486-1.214 1.309-1.965 2.459-2.248 1.814-.446 3.287-.123 4.427.967a29.42 29.42 0 0 1 3.27 3.715c2.082 2.775 7.581 20.047 17.187 20.047 9.663 0 24.445 0 40.54.006v.022c21.102.024 40.91.145 51.305.145 12.146 0 13.476-7.94 7.15-14.919-15.634-17.252-40.054-45.004-83.333-55.856-15.794-3.96-32.259-5.384-51.73-5.652-103.191-1.418-187.106 83.557-182.784 186.667 3.985 95.117 81.992 172.283 178.062 170.995 52.567-.705 83.423-13.058 96.021-22.188a14.492 14.492 0 0 1 8.492-2.77l14.232-.019c-23.953 19.356-53.509 34.414-84.666 41.202-11.309 2.188-22.855 3.342-34.532 3.342-20.03 0-40.832-1.573-61.571-5.746" style="fill:url(#a);stroke:none" transform="matrix(1.33333 0 0 -1.33333 0 1440)"/>
  <path d="M720.016 759.157c-2.857-.081-6.409-.318-10.653-.711-.954-.088-1.931-.182-2.957-.286a425.34 425.34 0 0 0-19.325-1.548h-9.907c-1.611 0-2.656-1.123-3.138-3.357-.647-2.24-1.329-5.253-2.054-9.037-.724-3.789-1.654-8.178-2.778-13.169l-38.893-92.435c-.324-.862-.887-1.25-1.691-1.161-.807.084-1.45.557-1.931 1.421l-36.238 94.757a723.893 723.893 0 0 0-3.139 9.813 648.654 648.654 0 0 0-2.899 9.552c-.323 1.202-.966 2.236-1.932 3.099-.967.859-2.095 1.29-3.383 1.29-3.061 0-6.604.086-10.627.259-4.028.17-8.095.387-12.202.646-4.105.258-7.934.472-11.473.645-3.545.17-6.365.258-8.455.258-2.096 0-3.786-.258-5.073-.775-1.291-.515-1.932-1.464-1.932-2.838 0-1.382.52-2.542 1.569-3.487 1.046-.948 2.454-1.594 4.226-1.936 3.059-.691 5.8-1.509 8.215-2.454 2.417-.948 4.749-2.283 7.005-4.002 1.772-1.379 3.02-2.883 3.745-4.518.723-1.638 1.168-3.744 1.327-6.326v-8.779c-.643-11.017-1.49-22.811-2.535-35.373-1.049-12.567-4.645-77.11-3.756-78.106 1.154-1.291 8.25-.35 8.25-.35 2.251-.148 5.932 86.888 6.739 96.53.158 1.55.684 2.494 1.57 2.84.883.343 1.572-.173 2.052-1.549a3045.123 3045.123 0 0 1 24.037-59.514 1629.64 1629.64 0 0 0 23.312-59.258c.486-1.374 1.45-2.194 2.899-2.452 1.45-.257 2.495.561 3.14 2.452l49.281 118.772c.641 1.376 1.247 2.107 1.812 2.195.562.084.924-.56 1.087-1.936.483-10.329.884-20.571 1.207-30.726.323-10.159.643-20.398.967-30.726.321-10.329.563-21.088.724-32.275.322-5.679-.602-9.726-2.777-12.136-2.174-2.412-6.001-4.22-11.475-5.42-1.934-.349-3.504-.949-4.712-1.808-1.206-.863-1.809-1.981-1.809-3.356 0-1.033.603-1.854 1.809-2.455 1.208-.6 2.617-.902 4.229-.902 3.865 0 7.569.129 11.112.386 3.541.259 7.005.477 10.389.647 3.382.168 6.679.258 9.903.258 3.383 0 6.965-.09 10.749-.258 3.784-.17 7.689-.344 11.716-.517 4.024-.169 7.89-.258 11.597-.258.28 0 .534.017.796.029 1.394.07 2.546.311 3.43.746 1.046.515 1.571 1.376 1.571 2.582 0 1.375-.605 2.408-1.814 3.098-.201.116-.43.225-.653.336-1.105.548-2.447 1.041-4.054 1.472-5.315 1.375-9.544 3.44-12.685 6.195-3.138 2.751-4.871 6.54-5.192 11.361-.483 10.671-1.05 20.439-1.69 29.306a1007.21 1007.21 0 0 0-1.571 26.078c-.405 8.52-.846 17.642-1.328 27.368-.484 9.724-.81 20.698-.968 32.921-.162 4.475.603 7.916 2.296 10.329 1.69 2.409 4.226 4.388 7.609 5.937a60.423 60.423 0 0 0 3.179 1.564c.454.207.921.418 1.411.631 1.77.775 3.298 1.332 4.59 1.678.97.432 1.818.842 2.546 1.231.72.385 1.322.75 1.803 1.094.965.685 1.448 1.718 1.448 3.098 0 1.376-.604 2.279-1.812 2.711a11.131 11.131 0 0 1-3.743.645c-.647 0-1.354-.014-2.093-.036" style="fill:url(#b);stroke:none" transform="matrix(1.33333 0 0 -1.33333 0 1440)"/>
  <path d="M484.555 757.288c-3.949-.174-7.814-.346-11.597-.517-3.786-.172-7.53-.258-11.232-.258-3.383 0-6.766.086-10.149.258-3.38.171-6.883.343-10.507.517-3.622.17-7.451.258-11.474.258-1.45 0-2.739-.302-3.864-.903-1.128-.604-1.693-1.42-1.693-2.452 0-2.756 2.09-4.564 6.282-5.423 4.186-.864 7.368-1.851 9.541-2.97 2.175-1.121 3.704-2.71 4.591-4.776.883-2.066 1.328-5.079 1.328-9.037V578.98c0-5.337-1.369-9.166-4.107-11.49-2.739-2.324-7.006-4.26-12.802-5.81-1.129-.346-2.258-.904-3.383-1.677-1.128-.775-1.69-1.853-1.69-3.229 0-.862.483-1.677 1.448-2.452.967-.774 2.335-1.163 4.107-1.163 1.77 0 4.67.13 8.698.389 4.023.257 8.334.474 12.925.644 4.588.174 8.654.259 12.198.259 6.764 0 13.969-.085 21.621-.259 7.645-.17 15.256-.298 22.828-.387 7.567-.085 14.734-.213 21.499-.387 6.764-.169 12.561-.259 17.393-.259 1.448 0 2.415.477 2.898 1.421.482.943.804 2.021.967 3.227a242.825 242.825 0 0 0 1.571 10.974 142.293 142.293 0 0 0 2.174 10.458c.883 3.614 1.97 7.915 3.26 12.909 0 .516.079 1.201.242 2.065.159.861.243 1.376.243 1.55a8.688 8.688 0 0 1-.728 3.485c-.481 1.118-1.288 1.678-2.413 1.678-.966 0-1.931-.689-2.899-2.065-.968-1.38-2.016-3.355-3.14-5.938-1.774-4.132-3.625-7.747-5.557-10.845-1.932-3.098-4.349-6.028-7.247-8.778-1.932-2.066-4.43-3.787-7.49-5.164-3.059-1.381-6.441-2.066-10.145-2.066h-26.331c-5.797 0-9.744 1.162-11.836 3.485-2.095 2.325-3.141 5.98-3.141 10.973v152.231c0 4.992 1.488 8.476 4.469 10.457 2.978 1.977 7.609 3.829 13.891 5.552 1.932.517 3.419 1.162 4.468 1.936 1.046.776 1.57 1.848 1.57 3.228 0 1.202-.484 2.107-1.45 2.711-.965.601-2.255.903-3.863.903-3.707 0-7.532-.088-11.474-.258" style="fill:url(#c);stroke:none" transform="matrix(1.33333 0 0 -1.33333 0 1440)"/>
  <g clip-path="url(#d)" transform="matrix(1.33333 0 0 -1.33333 0 1440)">
    <path d="M0 0c-.811 0-1.435.166-1.877.497-.442.331-.663.68-.663 1.049 0 .588.257 1.049.774 1.38.514.331 1.03.57 1.546.718 2.65.663 4.599 1.491 5.851 2.485 1.252.993 1.878 2.631 1.878 4.913v50.797c0 1.692-.204 2.981-.607 3.865-.405.883-1.104 1.563-2.099 2.043-.993.478-2.447.9-4.361 1.27-1.915.367-2.872 1.14-2.872 2.319 0 .441.258.79.774 1.048.514.257 1.104.387 1.767.387 1.839 0 3.589-.038 5.244-.11 1.658-.075 3.258-.149 4.804-.222a97.003 97.003 0 0 1 4.639-.11c1.692 0 3.404.036 5.134.11l5.301.222c1.803.072 3.551.11 5.245.11.735 0 1.324-.13 1.766-.387.442-.258.664-.645.664-1.159 0-.59-.24-1.049-.719-1.38-.48-.332-1.159-.607-2.042-.828-2.872-.738-4.988-1.53-6.35-2.374-1.363-.848-2.042-2.338-2.042-4.473V11.705c0-2.135.477-3.699 1.435-4.693.955-.993 2.761-1.49 5.41-1.49h12.037c1.693 0 3.239.293 4.638.883 1.398.588 2.54 1.325 3.423 2.208 1.325 1.177 2.429 2.429 3.313 3.755.883 1.325 1.729 2.87 2.54 4.637.514 1.105.993 1.951 1.436 2.541.442.587.883.883 1.325.883.514 0 .883-.24 1.103-.718.221-.479.332-.977.332-1.491 0-.074-.038-.294-.111-.662a4.724 4.724 0 0 1-.11-.883 407.54 407.54 0 0 1-1.49-5.522 57.073 57.073 0 0 1-.994-4.472 98.105 98.105 0 0 1-.719-4.693 4.054 4.054 0 0 0-.441-1.38C54.66.204 54.219 0 53.557 0c-2.21 0-4.859.038-7.951.111a728.81 728.81 0 0 1-9.828.165c-3.462.038-6.939.093-10.434.166-3.498.074-6.792.11-9.884.11-1.62 0-3.479-.036-5.576-.11A237.27 237.27 0 0 1 3.976.166C2.135.055.809 0 0 0" style="fill:#006943;fill-opacity:1;fill-rule:nonzero;stroke:none" transform="translate(232.082 326.919)"/>
    <path d="M0 0c-.883 0-1.564.129-2.043.387-.48.256-.718.607-.718 1.048 0 .589.312 1.012.94 1.27.625.257 1.379.497 2.263.718 1.768.515 3.275 1.508 4.527 2.982 1.252 1.471 2.025 3.385 2.32 5.742A560.913 560.913 0 0 1 9 26.834c.552 5.3 1.067 10.637 1.546 16.012a580.42 580.42 0 0 1 1.159 15.127v3.755c-.073 1.104-.276 2.005-.607 2.706-.331.699-.902 1.342-1.712 1.932a13.504 13.504 0 0 1-3.202 1.712 27.662 27.662 0 0 1-3.754 1.049c-.812.146-1.455.422-1.933.828-.479.404-.717.9-.717 1.491 0 .588.292.993.883 1.215.588.221 1.362.331 2.319.331.956 0 2.244-.038 3.865-.11 1.618-.075 3.368-.167 5.245-.277 1.878-.111 3.736-.204 5.577-.276a120.67 120.67 0 0 1 4.858-.111c.589 0 1.104-.184 1.546-.551a2.67 2.67 0 0 0 .884-1.326 265.634 265.634 0 0 1 2.76-8.281l16.565-40.527c.22-.369.514-.571.883-.608.367-.038.625.129.772.498l17.779 39.531a169.5 169.5 0 0 1 1.27 5.633c.331 1.618.643 2.907.939 3.865.22.955.698 1.435 1.435 1.435h4.528c2.797.147 5.742.367 8.834.663 3.092.294 5.483.442 7.178.442.587 0 1.159-.094 1.71-.277.553-.185.83-.57.83-1.159 0-.59-.221-1.032-.663-1.325-.442-.295-1.105-.626-1.988-.994-.59-.148-1.288-.386-2.099-.718a30.973 30.973 0 0 1-2.097-.939c-1.547-.661-2.706-1.509-3.478-2.539-.774-1.032-1.123-2.503-1.05-4.417.073-5.228.222-9.921.443-14.08.22-4.159.422-8.061.607-11.705.183-3.644.422-7.362.717-11.153.293-3.792.553-7.969.773-12.533.147-2.062.94-3.682 2.374-4.859 1.435-1.179 3.369-2.062 5.798-2.65.884-.221 1.601-.48 2.153-.773.552-.295.828-.737.828-1.325 0-.516-.24-.883-.718-1.104-.48-.221-1.123-.331-1.931-.331-1.695 0-3.462.038-5.302.11-1.84.074-3.626.148-5.355.221-1.731.072-3.368.11-4.915.11-1.473 0-2.98-.038-4.527-.11-1.545-.073-3.13-.166-4.748-.277A75.684 75.684 0 0 0 60.183 0c-.737 0-1.381.129-1.934.387-.551.256-.827.607-.827 1.048 0 .589.276 1.067.827 1.436.553.368 1.271.624 2.154.773 2.502.514 4.252 1.287 5.246 2.319.994 1.03 1.417 2.761 1.27 5.19a786.107 786.107 0 0 1-.332 13.803l-.442 13.14a825.89 825.89 0 0 1-.552 13.142c-.074.588-.24.864-.496.828-.259-.038-.535-.35-.829-.939L41.741.331c-.294-.809-.772-1.159-1.435-1.049-.663.11-1.104.461-1.326 1.049a671.668 671.668 0 0 1-10.656 25.343 1249.238 1249.238 0 0 0-10.987 25.453c-.221.589-.535.81-.939.663-.405-.148-.645-.552-.717-1.215-.369-4.124-.7-8.375-.994-12.755-.295-4.38-.48-8.741-.552-13.085a758.58 758.58 0 0 1-.111-12.919c0-1.988.645-3.682 1.933-5.08 1.286-1.399 3.257-2.429 5.908-3.092.883-.149 1.637-.387 2.263-.718.624-.331.94-.792.94-1.38 0-.516-.296-.883-.884-1.104-.591-.221-1.253-.331-1.988-.331-1.988 0-3.497.038-4.527.11a262.44 262.44 0 0 0-2.871.221c-.883.072-2.063.11-3.534.11-1.545 0-3.001-.038-4.362-.11A94.089 94.089 0 0 1 3.093.165 34.211 34.211 0 0 0 0 0" style="fill:#006943;fill-opacity:1;fill-rule:nonzero;stroke:none" transform="translate(302.09 327.03)"/>
    <path d="M0 0c-5.228 0-10.16.883-14.798 2.65-4.637 1.767-8.741 4.251-12.312 7.453-3.571 3.203-6.368 7.012-8.392 11.43-2.027 4.417-3.037 9.276-3.037 14.576 0 5.226 1.01 10.159 3.037 14.797 2.024 4.638 4.875 8.741 8.558 12.313 3.68 3.569 8.042 6.405 13.085 8.503 5.042 2.098 10.618 3.147 16.73 3.147 1.397 0 3.128-.13 5.189-.387a163.81 163.81 0 0 0 6.406-.938 95.565 95.565 0 0 0 6.128-1.215c1.877-.442 3.33-.883 4.362-1.325.514-.221.919-.497 1.215-.828.293-.332.478-.792.552-1.381.367-2.429.662-4.748.883-6.956.221-2.209.331-4.124.331-5.742 0-.591-.165-1.105-.496-1.546-.332-.443-.756-.663-1.27-.663-.811 0-1.4.276-1.767.828-.37.551-.701 1.159-.994 1.822a44.514 44.514 0 0 1-1.987 3.92 19.835 19.835 0 0 1-2.761 3.699c-.737.735-1.75 1.527-3.037 2.374-1.288.846-2.926 1.563-4.914 2.154-1.988.588-4.417.883-7.288.883-4.05 0-7.693-.827-10.932-2.484-3.241-1.656-5.964-3.958-8.172-6.902-2.209-2.946-3.902-6.276-5.079-9.994-1.179-3.718-1.767-7.602-1.767-11.649 0-5.08.588-9.663 1.767-13.748 1.177-4.087 2.832-7.584 4.968-10.491 2.135-2.909 4.674-5.135 7.62-6.68C-5.228 6.074-1.916 5.3 1.766 5.3c2.65 0 4.73.386 6.239 1.16 1.508.773 2.596 1.452 3.259 2.043.808.662 1.471 1.656 1.986 2.981.515 1.325.811 2.871.884 4.638 0 .662.018 1.508.056 2.54.036 1.03.072 2.06.11 3.092.037 1.03.055 1.877.055 2.539 0 .81-.129 1.528-.386 2.154-.259.625-.756 1.121-1.491 1.49-.663.514-1.51.975-2.54 1.381-1.032.404-2.08.699-3.147.884a48.018 48.018 0 0 1-2.595.385c-.516.074-1.068.314-1.656.719-.59.403-.884.9-.884 1.49 0 .588.277 1.03.829 1.326.552.292 1.048.441 1.49.441 1.693 0 3.44-.038 5.244-.11 1.805-.074 3.607-.149 5.412-.222 1.803-.073 3.551-.109 5.245-.109 2.061 0 4.103.072 6.13.22 2.022.147 4.102.221 6.238.221.442 0 .902-.129 1.38-.387.478-.258.718-.717.718-1.38 0-.59-.259-1.068-.773-1.435-.515-.369-.993-.591-1.436-.663-1.987-.516-3.33-1.178-4.03-1.987-.7-.811-1.159-1.953-1.38-3.423a48.107 48.107 0 0 1-.608-4.308 45.882 45.882 0 0 1-.165-3.975v-3.422c0-.37.128-.701.386-.995.257-.295.533-.625.829-.994.292-.369.569-.737.827-1.104.257-.369.387-.736.387-1.104 0-.442-.13-.902-.387-1.381-.258-.479-.791-.792-1.601-.939-.516-.073-1.509-.478-2.981-1.213-1.473-.738-3.332-1.566-5.576-2.485-2.247-.921-4.86-1.712-7.84-2.374C7.012.331 3.68 0 0 0" style="fill:#006943;fill-opacity:1;fill-rule:nonzero;stroke:none" transform="translate(478.991 325.925)"/>
    <path d="M0 0c3.017 0 5.537.679 7.564 2.043 2.024 1.361 3.569 3.183 4.637 5.465 1.067 2.282 1.602 4.822 1.602 7.62 0 3.313-.405 6.129-1.215 8.448-.81 2.319-2.191 4.121-4.141 5.411-1.951 1.286-4.62 1.932-8.005 1.932-1.915 0-3.222-.682-3.921-2.043-.701-1.363-1.087-4.105-1.16-8.227-.073-1.694-.109-3.92-.109-6.68V4.085c0-1.62.422-2.705 1.269-3.257C-2.634.276-1.473 0 0 0m39.311-39.643c-3.167 0-5.927.35-8.282 1.048-2.358.701-4.38 1.713-6.073 3.037a27.581 27.581 0 0 0-4.638 4.639c-1.62 2.207-3.203 4.361-4.749 6.459a108.207 108.207 0 0 0-4.692 6.957c-1.585 2.54-3.333 5.577-5.245 9.11C4.674-6.7 3.459-5.449 1.987-4.639A11.46 11.46 0 0 1-.939-3.533c-.994.22-1.823.331-2.485.331-.441.072-.773-.111-.993-.553-.222-.442-.331-.993-.331-1.656v-20.54c0-2.282.607-4.049 1.821-5.3 1.216-1.252 3.294-2.209 6.239-2.871.956-.148 1.656-.386 2.098-.718.442-.331.664-.791.664-1.38 0-.516-.204-.884-.609-1.104-.405-.221-1.012-.332-1.821-.332-1.694 0-3.424.056-5.19.167-1.767.109-3.478.201-5.136.276-1.655.072-3.221.109-4.692.109-1.621 0-3.296-.037-5.025-.109-1.73-.075-3.478-.183-5.245-.332a63.896 63.896 0 0 0-5.301-.221c-.661 0-1.252.13-1.766.386-.517.258-.773.608-.773 1.05 0 1.104.92 1.838 2.761 2.208 2.797.589 4.783 1.397 5.963 2.429 1.177 1.03 1.766 2.761 1.766 5.191v48.808c0 2.134-.165 3.771-.496 4.914-.332 1.14-.977 2.005-1.934 2.595-.957.588-2.393 1.03-4.307 1.326-1.03.145-1.766.441-2.207.883-.442.441-.662.883-.662 1.324 0 .514.238.901.718 1.16.477.257 1.121.386 1.931.386 2.209 0 3.975-.037 5.302-.11 1.324-.074 2.594-.165 3.809-.276 1.214-.11 2.667-.166 4.361-.166 1.619 0 3.055.072 4.307.221 1.25.147 2.65.294 4.196.442 1.546.147 3.533.221 5.963.221 8.465 0 14.943-1.473 19.436-4.417 4.489-2.945 6.734-7.437 6.734-13.473 0-3.312-.7-6.128-2.097-8.447-1.4-2.319-3.147-4.215-5.245-5.687-2.098-1.474-4.252-2.614-6.46-3.423-.294-.075-.425-.259-.386-.552.036-.295.165-.553.386-.773a483.675 483.675 0 0 1 6.46-9.663 105.469 105.469 0 0 1 6.625-8.668 88.451 88.451 0 0 1 7.565-7.84c2.281-2.136 4.618-3.406 7.011-3.81a44.495 44.495 0 0 1 7.455-.607c1.103 0 1.655-.552 1.655-1.657 0-1.473-.552-2.633-1.655-3.478-1.105-.845-2.56-1.453-4.362-1.822-1.805-.367-3.738-.552-5.798-.552" style="fill:#006943;fill-opacity:1;fill-rule:nonzero;stroke:none" transform="translate(553.527 364.796)"/>
    <path d="M0 0c4.638 0 8.52 1.177 11.65 3.533 3.128 2.356 5.483 5.649 7.068 9.883 1.582 4.234 2.374 9.111 2.374 14.632 0 4.711-.481 9.276-1.436 13.693-.958 4.418-2.429 8.374-4.417 11.871-1.988 3.495-4.472 6.275-7.454 8.337-2.981 2.06-6.534 3.092-10.657 3.092-4.637 0-8.521-1.179-11.649-3.533-3.13-2.358-5.466-5.633-7.013-9.829-1.544-4.196-2.318-9.055-2.318-14.576 0-4.712.478-9.275 1.435-13.693.956-4.417 2.412-8.392 4.362-11.926 1.95-3.533 4.417-6.332 7.399-8.392C-7.675 1.03-4.124 0 0 0m-1.877-4.859c-5.008 0-9.792.867-14.355 2.596-4.565 1.727-8.596 4.196-12.092 7.398-3.497 3.202-6.258 7.029-8.282 11.484-2.026 4.453-3.036 9.403-3.036 14.852 0 5.006.828 9.809 2.483 14.412a36.59 36.59 0 0 0 7.399 12.312c3.276 3.605 7.325 6.477 12.146 8.612 4.822 2.135 10.399 3.203 16.731 3.203 5.006 0 9.772-.866 14.3-2.595 4.527-1.731 8.558-4.196 12.092-7.398 3.533-3.203 6.311-7.032 8.337-11.484 2.023-4.456 3.037-9.406 3.037-14.853 0-4.933-.829-9.718-2.485-14.355-1.656-4.639-4.124-8.762-7.399-12.368-3.277-3.608-7.326-6.479-12.146-8.613-4.823-2.135-10.4-3.203-16.73-3.203" style="fill:#006943;fill-opacity:1;fill-rule:nonzero;stroke:none" transform="translate(650.921 330.784)"/>
    <path d="M0 0c-6.846 0-12.552 1.214-17.115 3.644-4.567 2.43-7.99 5.814-10.27 10.159-2.284 4.343-3.424 9.423-3.424 15.239v32.244c0 2.209-.497 4.086-1.49 5.633-.994 1.545-2.302 2.539-3.922 2.981-2.207.588-3.312 1.397-3.312 2.429 0 .442.294.791.884 1.049.588.257 1.325.386 2.208.386 2.061 0 4.215-.074 6.461-.22a99.148 99.148 0 0 1 6.57-.222c1.913 0 4.103.056 6.57.167 2.465.109 4.583.165 6.349.165.884 0 1.602-.11 2.154-.332.552-.22.828-.589.828-1.104 0-.736-.46-1.27-1.38-1.601a80.696 80.696 0 0 1-3.258-1.269c-1.032-.442-2.007-1.345-2.926-2.706-.921-1.363-1.38-3.221-1.38-5.577V31.361c0-5.301.883-9.662 2.649-13.086 1.768-3.423 4.122-5.945 7.067-7.564 2.944-1.62 6.257-2.43 9.939-2.43 6.993 0 12.183 2.209 15.571 6.626 3.385 4.418 5.079 10.748 5.079 18.993v6.516c0 2.502-.019 5.096-.055 7.785a484.29 484.29 0 0 1-.166 7.674c0 2.872-.203 5.208-.608 7.012-.405 1.803-.976 3.239-1.711 4.308-.737 1.065-1.767 1.894-3.092 2.483-.736.294-1.601.625-2.595.995-.994.367-1.49.845-1.49 1.435 0 .589.293.994.883 1.214.588.222 1.361.332 2.318.332 2.356 0 4.179-.038 5.467-.11a78.084 78.084 0 0 1 4.472-.111c1.251 0 2.374.018 3.368.056.994.036 1.969.091 2.926.165.956.073 2.06.11 3.313.11.884 0 1.583-.093 2.098-.275.514-.185.773-.572.773-1.16 0-1.032-1.068-1.805-3.201-2.319-2.284-.59-3.866-1.656-4.75-3.203-.883-1.545-1.399-3.57-1.546-6.073a582.572 582.572 0 0 1-.607-16.012c-.11-4.858-.203-9.755-.276-14.687-.074-5.89-1.418-11.097-4.03-15.625-2.614-4.527-6.129-8.061-10.546-10.601C10.38 1.27 5.446 0 0 0" style="fill:#006943;fill-opacity:1;fill-rule:nonzero;stroke:none" transform="translate(741.91 325.925)"/>
    <path d="M0 0c-.662 0-1.252.129-1.766.387-.517.256-.774.607-.774 1.048 0 1.105.921 1.84 2.761 2.209 2.797.588 4.784 1.398 5.963 2.43 1.177 1.03 1.767 2.76 1.767 5.19v48.587c0 2.796-.461 4.858-1.38 6.184-.921 1.325-2.706 2.281-5.357 2.871-1.031.221-1.766.533-2.208.938-.441.404-.662.829-.662 1.271 0 .514.238.9.718 1.159.478.256 1.121.387 1.932.387 1.767 0 3.404-.019 4.914-.056 1.508-.038 2.962-.093 4.362-.166a81.449 81.449 0 0 1 4.307-.11c1.618 0 3.147.072 4.582.221 1.436.147 2.908.294 4.417.442 1.508.146 3.258.221 5.246.221 8.759 0 15.753-1.842 20.981-5.522 5.226-3.682 7.84-8.762 7.84-15.238 0-4.565-.939-8.78-2.817-12.644-1.877-3.865-4.747-6.976-8.613-9.331-3.865-2.358-8.742-3.534-14.631-3.534-1.84 0-3.241.277-4.196.828-.957.552-1.435 1.16-1.435 1.822 0 .442.238.828.717 1.16.478.331.9.496 1.269.496.664 0 1.307-.055 1.934-.165.624-.11 1.562-.166 2.815-.166 3.459 0 6.091 1.767 7.896 5.301 1.803 3.533 2.705 8.244 2.705 14.135 0 6.476-1.308 11.207-3.921 14.189-2.613 2.982-6.127 4.473-10.544 4.473-2.063 0-3.663-.425-4.805-1.271-1.141-.847-1.711-2.191-1.711-4.03l-.11-51.79c0-2.43.607-4.252 1.821-5.466 1.216-1.215 3.295-2.153 6.239-2.816.957-.149 1.657-.387 2.099-.718.442-.331.663-.792.663-1.38 0-.516-.203-.883-.609-1.104-.405-.221-1.012-.331-1.821-.331a82.72 82.72 0 0 0-5.189.165c-1.767.111-3.479.202-5.136.276-1.656.073-3.221.111-4.693.111-1.62 0-3.295-.038-5.024-.111A128.779 128.779 0 0 1 5.3.221 63.872 63.872 0 0 0 0 0" style="fill:#006943;fill-opacity:1;fill-rule:nonzero;stroke:none" transform="translate(792.815 327.03)"/>
  </g>
  <path d="M230.917 266.357c-.057-.002-.115 0-.171 0-2.363 0-2.366-3.671 0-3.671h84.481c3.88 0 7.798-.161 11.676 0 .057.002.115 0 .171 0 2.363 0 2.367 3.671 0 3.671h-84.481c-2.586 0-5.19.072-7.788.072-1.299 0-2.596-.018-3.888-.072" style="fill:url(#e);stroke:none" transform="matrix(1.33333 0 0 -1.33333 0 1440)"/>
  <path d="M753.097 266.357c-.057-.002-.115 0-.171 0-2.363 0-2.367-3.671 0-3.671h84.481c3.879 0 7.798-.161 11.676 0 .057.002.115 0 .171 0 2.363 0 2.366 3.671 0 3.671h-84.481c-2.586 0-5.19.072-7.788.072-1.299 0-2.595-.018-3.888-.072" style="fill:url(#f);stroke:none" transform="matrix(1.33333 0 0 -1.33333 0 1440)"/>
  <g clip-path="url(#g)" transform="matrix(1.33333 0 0 -1.33333 0 1440)">
    <path d="M0 0c13.668 3.314 26.517 8.167 38.545 14.557 4.134 2.119 7.807 4.716 11.021 7.791 2.425 2.323 4.082 5.023 4.971 8.098 1.982 7.757-1.282 13.276-9.79 16.557a26.465 26.465 0 0 1-3.536 1.075 60.998 60.998 0 0 1-19.12 1.282c-8.918-.786-16.889-2.972-23.911-6.56-7.022-3.588-13.25-8.355-18.683-14.301a26.508 26.508 0 0 1-4.202-6.151 6.475 6.475 0 0 1-.873-2.82c0-1.059.598-1.726 1.795-1.998.204-.035.401-.044.589-.026.187.016.35.11.488.283a.678.678 0 0 1 .127.486c-.018.187-.127.333-.333.436-.581.307-.863.657-.846 1.05.018.393.128.777.333 1.154 0 .067.018.119.052.153a25.341 25.341 0 0 0 3.946 5.946c3.314 3.827 7.159 7.193 11.533 10.098 13.292 9.09 28.498 12.42 45.618 9.994 3.35-.444 6.476-1.452 9.38-3.023 3.794-2.051 5.809-4.99 6.049-8.817.136-4.169-1.265-7.808-4.203-10.917-3.178-3.281-6.868-5.997-11.071-8.15C25.235 9.465 11.72 4.425-2.666 1.076c-.41-.137-.819-.102-1.23.103 0 .307.077.58.231.82.153.239.333.478.538.718.103.103.187.221.257.358.717.923 1.417 1.846 2.1 2.769a4314.88 4314.88 0 0 0 15.993 21.117c.205.273.392.546.564.821.41.58.854 1.135 1.332 1.665.479.529 1.094.949 1.845 1.256.275.103.428.264.462.486.034.223-.034.437-.205.642a.948.948 0 0 1-.589.461 1.108 1.108 0 0 1-.743-.052 5.78 5.78 0 0 1-1.385-1.025 72.243 72.243 0 0 1-2.511-2.972A691.664 691.664 0 0 1-4.562 3.947a43.973 43.973 0 0 0-.308-.411 5.57 5.57 0 0 0-1.102-1.332c-.427-.376-1.05-.598-1.87-.667-.616-.068-1.086-.325-1.41-.767-.325-.445-.384-.924-.18-1.437.309-.615.376-1.136.206-1.563a4.034 4.034 0 0 0-.769-1.204 2.742 2.742 0 0 0-.256-.411 1976.045 1976.045 0 0 1-6.766-9.277 2380.41 2380.41 0 0 1-7.279-9.996 12.025 12.025 0 0 1-1.384-2.305c-.137-.444-.059-.786.231-1.026.29-.238.692-.307 1.204-.205a3.37 3.37 0 0 1 1.179.512c.342.24.478.616.411 1.128-.069.684.118 1.265.563 1.744.683.955 1.366 1.896 2.051 2.818A3248.987 3248.987 0 0 0-7.073-2.666c.443.649.819.965 1.126.949.309-.018.752-.367 1.334-1.052a56.306 56.306 0 0 1 7.995-6.714c8.475-5.877 17.582-10.849 27.321-14.915a50.435 50.435 0 0 1 4.357-1.538 6.774 6.774 0 0 1 3.689-.206c.445.138.685.394.718.77a.738.738 0 0 1-.282.486.924.924 0 0 1-.589.181c-1.606 0-3.11.247-4.511.743a35.94 35.94 0 0 0-4.152 1.768l-1.845.82C18.623-17.24 9.858-12.148 1.794-6.1-.154-4.767-1.948-3.058-3.588-.974c.478.136.922.273 1.332.41L0 0" style="fill:#006943;fill-opacity:1;fill-rule:nonzero;stroke:none" transform="translate(371.584 253.095)"/>
    <path d="M0 0a187.792 187.792 0 0 0-8.816-11.149c-3.162-3.708-5.579-6.193-7.254-7.457.547 2.084 2.136 5.022 4.767 8.816A109.361 109.361 0 0 0-2.768 1C.29 4.399 2.759 6.578 4.639 7.534 4.263 6.235 2.717 3.724 0 0m-79.757-20.477c1.658 1.417 2.743 1.801 3.256 1.153.512-.65-.215-1.649-2.179-2.999-1.965-1.351-3.58-2.145-4.844-2.383.854 1.4 2.11 2.81 3.767 4.229M2.486 8.56a35.965 35.965 0 0 1-6.51-6.152c-6.082-6.97-11.225-14.402-15.428-22.296a6.853 6.853 0 0 1-.359-.717 22.782 22.782 0 0 0-1.384-2.307c-.513-.753-1.196-1.402-2.05-1.947a2.286 2.286 0 0 1-.743-.641c-.162-.222-.142-.449.038-.683l-.013-.01c-.205-.137-.427-.29-.666-.461a114.636 114.636 0 0 0-14.66-7.688 11.438 11.438 0 0 0-3.742-1.025c-1.982-.171-2.955.581-2.921 2.255a9.849 9.849 0 0 0 .871 3.588c.103.273.206.528.308.768.136.308.196.598.179.872-.018.274-.214.513-.59.718-.307.136-.607.17-.896.102a2.21 2.21 0 0 1-.794-.359 194.995 194.995 0 0 1-2.718-1.64 98.327 98.327 0 0 0-4.049-2.46 4.945 4.945 0 0 1-.512-.36c-.991-.751-2.255-1.229-3.794-1.434 2.633 4.646 6.818 7.961 12.559 9.943.17.068.358.103.564.103.103.033.221.052.358.052.513.136.948.153 1.307.051.359-.103.555-.428.59-.975 0-.41.256-.632.769-.665.443.067.734.273.87.615.479 1.401-.222 2.237-2.101 2.512-1.811.067-3.485-.257-5.022-.974a30.659 30.659 0 0 1-5.007-2.742c-.629-.263-2.569-1.298-5.86-3.128a45.777 45.777 0 0 0-12.507-4.741c-4.374-.957-7.852-1.017-10.43-.179-2.58.837-3.632 2.332-3.153 4.485 0 1.161.649 1.948 1.947 2.357 2.768.923 5.109 2.307 7.023 4.152.819.718 1.4 1.555 1.742 2.511.205.786.043 1.437-.487 1.949-.53.513-1.289.734-2.28.666-1.128-.102-2.102-.444-2.922-1.025-3.929-2.46-6.202-5.827-6.817-10.098v-.154c-.444-2.46.256-4.433 2.101-5.92 1.846-1.486 5.741-1.846 11.687-1.076 4.459.577 9.323 2.359 14.59 5.349a26.8 26.8 0 0 1-.853-1.069 8.311 8.311 0 0 1-.821-1.59c-.204-.376-.297-.743-.281-1.101.018-.359.23-.71.64-1.052.411-.273.839-.409 1.282-.409.444 0 .889.068 1.332.205a19.39 19.39 0 0 1 4.357 2.255c.171.069.325.154.462.256.341.206.683.427 1.025.667 1.025.717 2.238 1.366 3.639 1.948a33.153 33.153 0 0 0-.103-.923 219.91 219.91 0 0 0-.101-1.537c-.138-3.178 1.69-4.613 5.484-4.306 1.332.205 2.58.546 3.742 1.025a111.316 111.316 0 0 1 14.761 7.637c.096.064.185.137.279.203-.026-.05-.043-.103-.073-.152a6.302 6.302 0 0 1-.206-.461l-1.332-3.075a194.045 194.045 0 0 1-1.999-4.665c-2.46-6.56-4.049-13.173-4.767-19.836-.069-.717.034-1.298.307-1.742.376-.65.975-.872 1.795-.667.376.137.563.307.563.513 0 .204-.102.444-.307.716-.274.479-.41.957-.41 1.437 0 .477.051.955.154 1.435l.103.615c1.434 9.156 4.271 17.973 8.508 26.448.956 2.221 2.46 4.134 4.511 5.741a42.854 42.854 0 0 1 6.817 6.561A243.556 243.556 0 0 1 4.588 3.024c.717.99 1.349 2.016 1.896 3.075.033.068.068.136.103.205.306.479.512.982.614 1.512.102.53-.12 1.051-.666 1.564-.821.751-2.171.478-4.049-.82" style="fill:#006943;fill-opacity:1;fill-rule:nonzero;stroke:none" transform="translate(511.029 286.053)"/>
    <path d="M0 0c1.656 1.418 2.742 1.802 3.255 1.153.512-.65-.214-1.648-2.179-2.998-1.965-1.351-3.58-2.145-4.843-2.383C-2.914-2.828-1.658-1.419 0 0m-94.697-25.423c-2.665-2.956-5.057-4.964-7.175-6.023-.206.376-.239.718-.103 1.025.136.307.325.615.563.923.102.103.189.221.257.359 2.358 3.143 5.176 6.1 8.457 8.867l.513.513c.546.478 1.109.956 1.691 1.435.239.239.478.461.717.666-.615-2.221-2.254-4.809-4.92-7.765m33.727 37.494c-.854-1.845-2.171-3.417-3.947-4.716.751 1.914 2.067 3.486 3.947 4.716m4.101 5.638c1.058 1.23 2.067 2.204 3.024 2.922-.48-.991-1.223-2.119-2.23-3.383-1.008-1.265-2.025-2.222-3.05-2.87.444.991 1.197 2.102 2.256 3.331m46.951-5.638c-.854-1.845-2.171-3.417-3.947-4.716.751 1.914 2.067 3.486 3.947 4.716m4.101 5.638c1.058 1.23 2.066 2.204 3.024 2.922-.48-.991-1.223-2.119-2.23-3.383-1.009-1.265-2.025-2.222-3.05-2.87.443.991 1.195 2.102 2.256 3.331M26.936-4.843c-.103.067-2.137-1.001-6.101-3.205a45.746 45.746 0 0 0-12.506-4.741c-4.375-.956-7.851-1.016-10.431-.178-2.58.836-3.63 2.331-3.151 4.484 0 1.161.649 1.948 1.947 2.358 2.767.922 5.107 2.307 7.021 4.151.821.718 1.401 1.555 1.744 2.512.205.786.042 1.436-.488 1.949-.53.512-1.289.734-2.281.665C1.563 3.05.589 2.708-.231 2.127-3.556.046-5.68-2.692-6.632-6.07l-.006-.004a1.58 1.58 0 0 0-.256-.204l-3.69-3.281c-1.095-.923-2.205-1.863-3.333-2.819l-.461-.462a63.111 63.111 0 0 0-7.073-5.535c-.035-.034-.069-.052-.103-.052-1.161-.889-2.495-1.555-3.997-1.999-1.503-.409-2.392.034-2.666 1.333a7.34 7.34 0 0 0 .461 3.742 60.553 60.553 0 0 0 5.177 10.559c.342.512.752.99 1.231 1.435 4.1 3.827 7.944 7.824 11.532 11.994 1.127 1.298 2.042 2.238 2.743 2.818.7.582 1.554.931 2.563 1.052 1.007.119 2.553.179 4.638.179 2.153 0 4.306.085 6.459.257.512.033 1.007.11 1.486.23.478.12.871.384 1.179.795.204.341.187.649-.051.922-.274.342-.633.444-1.077.308a13.306 13.306 0 0 0-4.177-.948 51.349 51.349 0 0 0-4.332-.077 52.792 52.792 0 0 1-3.998-.052c0 .444.06.778.18 1 .12.222.247.418.385.589.067.069.118.12.154.154.306.41.649.854 1.025 1.332a357.181 357.181 0 0 0 2.819 3.64l2.613 3.332a9.777 9.777 0 0 1 1.077 2.05c.205.409.102.785-.307 1.128-.513.307-1.009.358-1.487.154a7.667 7.667 0 0 1-2.307-1.487l-.256-.256c-1.64-1.402-3.349-3.093-5.126-5.074a200.867 200.867 0 0 1-4.715-5.434c-.82-.992-1.999-1.487-3.537-1.487a752.228 752.228 0 0 1-17.581-.614 65.543 65.543 0 0 1-5.177-.513c-1.058-.103-1.982-.428-2.768-.974-.477-.444-.513-.906-.103-1.384.24-.205.48-.291.718-.256.24.033.445.154.616.359.376.34.819.571 1.332.692.512.119 1.043.213 1.588.282h.052c6.971.614 13.959.904 20.964.871.341.033.58-.171.718-.616a72.202 72.202 0 0 0-.666-.87c-.513-.685-1.06-1.402-1.64-2.153a149.925 149.925 0 0 1-7.203-10.38 78.956 78.956 0 0 1-1.925-3.23 1.922 1.922 0 0 1-.765-.332 4.6 4.6 0 0 1-.513-.359 28.198 28.198 0 0 1-.667-.462 114.616 114.616 0 0 0-14.659-7.688 11.446 11.446 0 0 0-3.741-1.025c-1.983-.171-2.956.581-2.923 2.256.069 1.264.36 2.46.872 3.588.102.272.205.529.308.768.136.308.196.598.179.872-.018.273-.213.513-.589.717a1.384 1.384 0 0 1-.897.102 2.237 2.237 0 0 1-.795-.358 191.049 191.049 0 0 1-2.717-1.641 96.98 96.98 0 0 0-4.049-2.459 4.796 4.796 0 0 1-.512-.36c-.991-.751-2.256-1.229-3.794-1.435 2.633 4.648 6.817 7.962 12.559 9.944.17.068.358.103.563.103.103.033.222.051.359.051.512.136.948.153 1.307.052.36-.103.555-.428.59-.974 0-.411.256-.634.768-.667.445.068.735.273.872.616.478 1.4-.223 2.237-2.101 2.511-1.813.068-3.486-.257-5.024-.974a30.706 30.706 0 0 1-4.716-2.549.888.888 0 0 1-.486.063 2.08 2.08 0 0 1-.948-.436 11.938 11.938 0 0 1-1.231-.974 1.58 1.58 0 0 0-.256-.204l-3.69-3.281c-1.094-.923-2.205-1.863-3.333-2.819l-.461-.462a63.111 63.111 0 0 0-7.073-5.535c-.034-.034-.069-.052-.103-.052-1.161-.889-2.494-1.555-3.997-1.999-1.503-.409-2.392.034-2.666 1.333a7.35 7.35 0 0 0 .461 3.742 60.553 60.553 0 0 0 5.177 10.559c.342.512.752.99 1.231 1.435C-68.3.47-64.456 4.467-60.867 8.637c1.127 1.298 2.041 2.238 2.742 2.818.7.582 1.555.931 2.563 1.052 1.007.119 2.553.179 4.638.179 2.153 0 4.306.085 6.459.257.512.033 1.007.11 1.486.23.478.12.872.384 1.179.795.206.341.187.649-.051.922-.274.342-.632.444-1.077.308a13.306 13.306 0 0 0-4.176-.948 51.38 51.38 0 0 0-4.333-.077 52.765 52.765 0 0 1-3.997-.052c0 .444.059.778.179 1 .12.222.247.418.385.589l.154.154c.307.41.648.854 1.025 1.332a372.062 372.062 0 0 0 2.819 3.64l2.613 3.332a9.777 9.777 0 0 1 1.077 2.05c.205.409.102.785-.307 1.128-.513.307-1.009.358-1.487.154a7.68 7.68 0 0 1-2.307-1.487c-.068-.069-.154-.153-.255-.256-1.641-1.402-3.35-3.093-5.126-5.074a199.11 199.11 0 0 1-4.715-5.434c-.821-.992-2-1.487-3.538-1.487a752.228 752.228 0 0 1-17.581-.614 65.637 65.637 0 0 1-5.177-.513c-1.058-.103-1.981-.428-2.768-.974-.477-.444-.513-.906-.102-1.384.24-.205.479-.291.717-.256.24.033.445.154.616.359.376.34.82.571 1.333.692.512.119 1.042.213 1.589.282h.05c6.971.614 13.959.904 20.964.871.342.033.581-.171.719-.616a84.99 84.99 0 0 0-.667-.87 163.8 163.8 0 0 0-1.64-2.153 150.273 150.273 0 0 1-7.203-10.38 80.396 80.396 0 0 1-1.816-3.032 5.29 5.29 0 0 1-.617-.377c-1.265-.819-2.803-1.913-4.614-3.28a168.508 168.508 0 0 1-4.05-3.127c-.443-.342-.94-.734-1.486-1.179a18.364 18.364 0 0 1-5.071 6.68c.067.047.137.089.203.138.17.136.273.315.307.538.034.222-.051.436-.257.641-.341.273-.717.325-1.127.153a3.6 3.6 0 0 1-.403-.201c-.18.202-.362.404-.52.612-.718.853-.735 1.674-.051 2.46.887.956 1.93 1.82 3.126 2.588 1.196.769 2.734 1.273 4.614 1.512.307.034.555.094.743.179.187.085.264.214.231.385-.07.239-.231.401-.488.487a2.848 2.848 0 0 1-.897.129c-.854 0-1.623-.154-2.306-.462-2.427-.923-4.46-2.119-6.099-3.588-1.538-1.436-1.624-2.956-.257-4.562.163-.182.349-.352.517-.531-11.256-6.465-24.301-13.375-39.164-20.74a157.708 157.708 0 0 0-23.784-9.739 25.455 25.455 0 0 0-8.354-1.487c-4.408 0-5.775 1.743-4.101 5.229 1.64 3.416 3.929 6.441 6.868 9.071 7.312 6.732 15.89 11.892 25.731 15.481a61.949 61.949 0 0 1 4.409 1.794c.341.136.623.324.846.563.221.239.264.546.127.923-.136.308-.35.512-.64.615a2.665 2.665 0 0 1-.897.154c-.581.034-1.162.052-1.744.052h-.716c-1.197 0-2.376.015-3.537.051-2.665 0-5.313.016-7.945.05-1.674 0-3.332.187-4.973.564-3.861.718-4.801 2.58-2.818 5.588a24.529 24.529 0 0 0 3.946 4.715c9.773 9.5 21.135 17.205 34.086 23.117a70.265 70.265 0 0 0 10.713 3.896 23.77 23.77 0 0 0 6.612 1.127c2.05.068 2.528-.65 1.436-2.152a25.468 25.468 0 0 0-4.357-4.665l-.103-.102-3.075-2.769a116.585 116.585 0 0 1-9.585-9.225 36.974 36.974 0 0 1-5.485-7.382 6.165 6.165 0 0 1-.718-4.254c.205-.855.709-1.53 1.513-2.024.803-.496 1.682-.676 2.639-.539.205.033.385.103.539.206a.653.653 0 0 1 .282.46c0 .205-.07.359-.206.462a1.726 1.726 0 0 1-.564.256c-1.366.444-2.196.939-2.485 1.487-.291.546-.163 1.401.384 2.563a22.348 22.348 0 0 0 3.486 5.33 108.83 108.83 0 0 0 10.918 10.816c.34.34.716.683 1.128 1.025a160.76 160.76 0 0 1 4.356 3.997 16.81 16.81 0 0 1 3.281 3.845c1.366 2.596.427 4.031-2.82 4.305a19.35 19.35 0 0 1-3.691-.256 48.95 48.95 0 0 1-9.893-2.768c-7.004-2.665-13.531-5.929-19.579-9.79a143.334 143.334 0 0 1-17.12-12.814A51.019 51.019 0 0 1-155.59 5.1a11.281 11.281 0 0 1-2.101-3.537c-.855-2.734.222-4.647 3.229-5.74a21.276 21.276 0 0 1 5.484-1.026c3.52-.274 7.312-.392 11.379-.359-.922-.819-1.76-1.316-2.511-1.485a11.189 11.189 0 0 1-.564-.206c-8.884-3.588-16.71-8.475-23.476-14.659-2.767-2.529-5.041-5.365-6.817-8.509a14.702 14.702 0 0 1-1.332-3.332c-.546-2.664.7-4.389 3.742-5.177a12.09 12.09 0 0 1 2.716-.307h.102a25.919 25.919 0 0 1 8.715 1.384 142.202 142.202 0 0 1 21.117 8.355c16.163 7.927 30.378 15.411 42.646 22.451.057.028.11.063.166.092.049-.047.091-.097.14-.144.309-.307.616-.598.924-.871 1.537-1.402 2.63-2.905 3.279-4.51.445-1.128.12-2.153-.974-3.076a116.314 116.314 0 0 1-6.098-5.382 5.923 5.923 0 0 0-.513-.461 55.756 55.756 0 0 1-5.895-6.202c-.922-1.128-1.589-2.325-1.999-3.588a1.59 1.59 0 0 1 0-.975c.103-.307.428-.564.974-.768.547-.171 1.051-.215 1.512-.128a3.99 3.99 0 0 1 1.307.487c1.094.545 2.034 1.195 2.819 1.947 3.35 2.938 6.219 6.049 8.612 9.328l.307.412c.888 1.025 1.418 2.083 1.589 3.178.103 1.332.615 2.502 1.537 3.51.923 1.008 2.461 2.263 4.614 3.768a112.65 112.65 0 0 1 3.37 2.441 78.359 78.359 0 0 1-2.294-4.851 13.35 13.35 0 0 1-1.332-5.331c.24-3.656 2.341-4.801 6.305-3.434 2.46 1.025 4.612 2.358 6.457 3.998a364.192 364.192 0 0 1 6.084 5.137c-.19-.362-.282-.716-.266-1.062.017-.358.231-.709.641-1.05.41-.275.837-.411 1.281-.411.445 0 .889.069 1.333.206a19.446 19.446 0 0 1 4.356 2.255c.172.068.325.154.461.256.342.205.684.427 1.025.666 1.026.718 2.239 1.368 3.641 1.948a50.418 50.418 0 0 0-.103-.922 223.11 223.11 0 0 0-.103-1.538c-.136-3.178 1.692-4.613 5.485-4.306 1.333.206 2.58.546 3.741 1.026a111.417 111.417 0 0 1 14.32 7.375 78.544 78.544 0 0 1-2.274-4.813 13.35 13.35 0 0 1-1.332-5.331c.239-3.656 2.34-4.801 6.304-3.434 2.461 1.025 4.613 2.358 6.458 3.998a370.105 370.105 0 0 1 6.921 5.843c1.025.889 2.066 1.777 3.126 2.666.068.06.138.118.207.178-.169-2.093.56-3.802 2.202-5.124 1.845-1.487 5.74-1.845 11.686-1.076 5.946.768 12.609 3.681 19.99 8.739.273.239.461.486.564.743.103.256-.018.521-.358.795" style="fill:#006943;fill-opacity:1;fill-rule:nonzero;stroke:none" transform="translate(706.88 265.576)"/>
  </g>
</svg>