<svg width="64px" height="64px" viewBox="0 0 64 64" id="spain-flag" xmlns="http://www.w3.org/2000/svg"><title>spain-flag</title><circle cx="25" cy="30" r="23" style="fill:#036943"/><line x1="10" y1="3" x2="10" y2="5" style="fill:none;stroke:#4c241d;stroke-linecap:round;stroke-linejoin:round;stroke-width:2px"/><line x1="10" y1="9" x2="10" y2="11" style="fill:none;stroke:#4c241d;stroke-linecap:round;stroke-linejoin:round;stroke-width:2px"/><line x1="6" y1="7" x2="8" y2="7" style="fill:none;stroke:#4c241d;stroke-linecap:round;stroke-linejoin:round;stroke-width:2px"/><line x1="12" y1="7" x2="14" y2="7" style="fill:none;stroke:#4c241d;stroke-linecap:round;stroke-linejoin:round;stroke-width:2px"/><path d="M37.082,55.667A1.069,1.069,0,1,1,36.013,54.6,1.07,1.07,0,0,1,37.082,55.667Z" style="fill:#4c241d"/><circle cx="52.5" cy="43.5" r="2.5" style="fill:none;stroke:#4c241d;stroke-linecap:round;stroke-linejoin:round;stroke-width:2px"/><path d="M25,18c12.874-7.357,15.834-8.913,26.993-8.08a16.012,16.012,0,0,1,1.644.218L52,4c-12-1-14.747.427-28,8C10,20,3,15,3,15l1.69,6.385C6.764,22.384,13.532,24.553,25,18Z" style="fill:#f53e28;stroke:#4c241d;stroke-linecap:round;stroke-linejoin:round;stroke-width:2px"/><path d="M58,27s-10-3-22,6c-10.721,8.041-24.335,8.92-25.855,8.994L12,49s14.63-.472,26-9c12-9,22-6,22-6l-1.881-7.053Z" style="fill:#f53e28;stroke:#4c241d;stroke-linecap:round;stroke-linejoin:round;stroke-width:2px"/><path d="M58,27l.119-.053L53.637,10.138a16.012,16.012,0,0,0-1.644-.218C40.834,9.087,37.874,10.643,25,18,13.532,24.553,6.764,22.384,4.69,21.385l5.455,20.609C11.665,41.92,25.279,41.041,36,33,48,24,58,27,58,27Z" style="fill:#ffce56;stroke:#4c241d;stroke-linecap:round;stroke-linejoin:round;stroke-width:2px"/><line x1="4.69" y1="21.385" x2="15.177" y2="60.901" style="fill:none;stroke:#4c241d;stroke-linecap:round;stroke-linejoin:round;stroke-width:2px"/></svg>