<svg xmlns="http://www.w3.org/2000/svg" width="250" height="230" style="shape-rendering:geometricPrecision;text-rendering:geometricPrecision;image-rendering:optimizeQuality;fill-rule:evenodd;clip-rule:evenodd">
  <path fill="#c50b1d" d="M61.5-.5h25c14.442 2.986 27.275 9.32 38.5 19 11.785-10.09 25.285-16.423 40.5-19h19c32.666 5.995 53.666 24.995 63 57H1.5c8.322-31.323 28.322-50.323 60-57Z" style="opacity:.987"/>
  <path fill="#fdc200" d="M1.5 56.5h246a43.788 43.788 0 0 0 2 6v25c-2.401 12.809-7.567 24.476-15.5 35a1121.264 1121.264 0 0 1-48.5 49h-121c-9.667-9-19-18.333-28-28v-11c3.54-1.516 4.54-4.016 3-7.5a4.934 4.934 0 0 0-3-.5v-3h3c1.459-.067 2.792.266 4 1-.166 7.341 0 14.674.5 22a114.67 114.67 0 0 1 1.5-15c1.295 6.693 1.295 13.359 0 20 .355 1.022 1.022 1.689 2 2 .342.838 1.008 1.172 2 1 .333 1 1 1.667 2 2l4 1c8.78 2.859 17.446 2.526 26-1 3.862-1.024 6.695-3.357 8.5-7 .5-6.325.666-12.658.5-19v-6a21.434 21.434 0 0 1 7-1v3c-2.222.059-3.222 1.225-3 3.5-.222 2.275.778 3.441 3 3.5v14c-1.431 1.28-2.098 2.947-2 5-1.293 1.864-1.293 3.864 0 6h12c1.293-2.136 1.293-4.136 0-6 .098-2.053-.569-3.72-2-5v-10c.802 1.452 1.302 3.118 1.5 5 2.203-2.169 3.036-4.835 2.5-8-1.459.067-2.792-.266-4-1v-4c3.014-.504 4.68-2.337 5-5.5-.139-1.301-.805-2.134-2-2.5-.709-.904-1.709-1.237-3-1v-10c-.086-.996.248-1.829 1-2.5a25.238 25.238 0 0 0-10 0c.752.671 1.086 1.504 1 2.5.409 3.355-.258 6.355-2 9-2.425.184-2.425.851 0 2l-1 1c-1.142-1.326-2.475-2.326-4-3v-15h-9c.85-3.688 3.016-6.354 6.5-8 .47-1.077.303-2.077-.5-3 3.195-.013 4.862-1.68 5-5-.348-2.197-1.348-4.03-3-5.5a40.221 40.221 0 0 0-11-2c-2.338-2.42-5.005-2.92-8-1.5-1.458-1.638-1.792-3.305-1-5-1.333-2.667-2.667-2.667-4 0 .552 1.503.552 3.17 0 5-5.9-.218-11.566.616-17 2.5-5.559 1.458-7.392 4.958-5.5 10.5a39.036 39.036 0 0 0 5.5 5 26.006 26.006 0 0 1 5 7h-10v15h-2c-1.068-.934-2.401-1.268-4-1v-8c.839-3.659.839-7.159 0-10.5-1.903-.2-3.403-1.032-4.5-2.5a22.288 22.288 0 0 1-5.5 4c.692 1.018 1.36 2.018 2 3-1.086.12-1.753.787-2 2 1.655 5.279 1.322 10.279-1 15-1.495-.085-2.495.581-3 2 .56 3.496 2.56 5.163 6 5v4c-1.014 1.174-2.347 1.84-4 2-13.756-12.082-22.423-27.082-26-45v-26l2-5Z" style="opacity:.994"/>
  <path fill="#4b390b" d="M87.5 91.5c.803.923.97 1.923.5 3-3.484 1.646-5.65 4.312-6.5 8h-8l5-2c1.725-.343 2.225-1.343 1.5-3-1.395 1.315-2.395.981-3-1-.71 1.473-1.876 2.14-3.5 2v-3a81.87 81.87 0 0 1-14-1 34.087 34.087 0 0 0 7-2c-.825-.886-1.825-1.219-3-1-.02-1.643.647-2.976 2-4a6.845 6.845 0 0 1-1-4c1.501-2.859.501-4.192-3-4-4.092-.084-5.425 1.583-4 5v4h-2c-.432-1.21-1.099-2.21-2-3v-4c-3.658-.074-6.325 1.426-8 4.5.07.765.403 1.265 1 1.5.086.996-.248 1.83-1 2.5 3.514 2.262 6.848 2.429 10 .5.876-.13 1.543.203 2 1-1.465 4.9-4.465 6.234-9 4a39.036 39.036 0 0 1-5.5-5c-1.892-5.542-.059-9.042 5.5-10.5 5.434-1.884 11.1-2.718 17-2.5.552-1.83.552-3.497 0-5 1.333-2.667 2.667-2.667 4 0-.792 1.695-.458 3.362 1 5 2.995-1.42 5.662-.92 8 1.5 3.787.16 7.454.826 11 2 1.652 1.47 2.652 3.303 3 5.5-.138 3.32-1.805 4.987-5 5Z" style="opacity:1"/>
  <path fill="#f0b900" d="M64.5 83.5a21.445 21.445 0 0 0-7 1c-1.425-3.417-.092-5.084 4-5 3.501-.192 4.501 1.141 3 4Z" style="opacity:1"/>
  <path fill="#f3bb00" d="M76.5 84.5a21.445 21.445 0 0 0-7-1c-.423-2.743.744-4.076 3.5-4 2.626.056 4.46 1.223 5.5 3.5-.336 1.03-1.003 1.53-2 1.5Z" style="opacity:1"/>
  <path fill="#eeb700" d="M53.5 85.5c-2.728-.33-5.062.337-7 2-.597-.235-.93-.735-1-1.5 1.675-3.074 4.342-4.574 8-4.5v4Z" style="opacity:1"/>
  <path fill="#e0ac00" d="M87.5 86.5a51.639 51.639 0 0 0-7-1v-4c3.823-.088 6.823 1.412 9 4.5a2.428 2.428 0 0 1-2 .5Z" style="opacity:1"/>
  <path fill="#941815" d="M64.5 83.5a6.845 6.845 0 0 0 1 4c-1.353 1.024-2.02 2.357-2 4 1.175-.219 2.175.114 3 1a34.087 34.087 0 0 1-7 2c-.543-.06-.876-.393-1-1 1.353-1.024 2.02-2.357 2-4-1.291.237-2.291-.096-3-1v-4a21.445 21.445 0 0 1 7-1Z" style="opacity:1"/>
  <path fill="#9c1816" d="M69.5 83.5a21.445 21.445 0 0 1 7 1c1.7 3.202.7 5.202-3 6-3.487-1.022-4.82-3.355-4-7Z" style="opacity:1"/>
  <path fill="#9b1616" d="M53.5 85.5c.901.79 1.568 1.79 2 3v2c-3.152 1.929-6.486 1.762-10-.5.752-.67 1.086-1.504 1-2.5 1.938-1.663 4.272-2.33 7-2Z" style="opacity:1"/>
  <path fill="#911415" d="M80.5 85.5c2.361.174 4.694.507 7 1 1.333 1.667 1.333 3.333 0 5h-3c.262 1.478-.071 2.811-1 4a4.452 4.452 0 0 1-1.5-2c-1.183 1.231-2.35 1.231-3.5 0a6.807 6.807 0 0 1 3-1.5c-2.184-1.898-2.517-4.064-1-6.5Z" style="opacity:1"/>
  <path fill="#6f6003" d="M55.5 88.5h2c.709.904 1.709 1.237 3 1 .02 1.643-.647 2.976-2 4 .124.607.457.94 1 1a81.87 81.87 0 0 0 14 1v3c1.624.14 2.79-.527 3.5-2 .605 1.981 1.605 2.315 3 1 .725 1.657.225 2.657-1.5 3-8.017-1.425-16.017-1.259-24 .5l7 1a32.462 32.462 0 0 1-8 .5 26.006 26.006 0 0 0-5-7c4.535 2.234 7.535.9 9-4-.457-.797-1.124-1.13-2-1v-2Z" style="opacity:1"/>
  <path fill="#2e2117" d="M37.5 108.5c-.977 2.787-1.31 5.787-1 9h-4c1.702-2.3 2.368-4.967 2-8h-5l7-4c.543-.06.876-.393 1-1a16.874 16.874 0 0 0-8-1v-1c-.64-.982-1.308-1.982-2-3a22.288 22.288 0 0 0 5.5-4c1.097 1.468 2.597 2.3 4.5 2.5.839 3.341.839 6.841 0 10.5Z" style="opacity:1"/>
  <path fill="#201403" d="M100.5 96.5a19.24 19.24 0 0 0 6 1c-.354 2.041-.354 3.874 0 5.5-3.054.821-6.054.655-9-.5a9.106 9.106 0 0 1-1-5c1.599.268 2.932-.066 4-1Z" style="opacity:1"/>
  <path fill="#561b0f" d="m78.5 100.5-5 2c-2.235-.295-4.235.039-6 1v16c1.291-.237 2.291.096 3 1h-6c1.879-5.37 2.545-11.037 2-17h-22c.32 4.863-.014 9.53-1 14v-15h10a32.462 32.462 0 0 0 8-.5l-7-1c7.983-1.759 15.983-1.925 24-.5Z" style="opacity:1"/>
  <path fill="#c7b100" d="M29.5 103.5c2.747-.313 5.413.02 8 1-.124.607-.457.94-1 1a16.874 16.874 0 0 1-8-1c.124-.607.457-.94 1-1Z" style="opacity:1"/>
  <path fill="#a71518" d="M64.5 120.5h-3v-6a51.648 51.648 0 0 1-1-7c-1.777-.286-3.444-.953-5-2-1.556 1.047-3.223 1.714-5 2a178.005 178.005 0 0 1-1 17h5c.709.904 1.709 1.237 3 1 .876-.131 1.543.202 2 1a57.15 57.15 0 0 1-15 1c.285-1.915-.049-3.581-1-5-1.208-.734-2.541-1.067-4-1 1.098-.897 1.098-1.73 0-2.5.544-.717 1.21-1.217 2-1.5h2c.986-4.47 1.32-9.137 1-14h22c.545 5.963-.121 11.63-2 17Z" style="opacity:1"/>
  <path fill="#c3c3c3" d="M67.5 103.5h22v24c-5.307.526-10.307-.14-15-2-.58-2.249-1.913-3.915-4-5-.709-.904-1.709-1.237-3-1v-16Z" style="opacity:1"/>
  <path fill="#898989" d="M67.5 103.5c1.765-.961 3.765-1.295 6-1h17v26h-16v-3c4.693 1.86 9.693 2.526 15 2v-24h-22Z" style="opacity:1"/>
  <path fill="#5b5002" d="M105.5 108.5h-8c.086-.996-.248-1.829-1-2.5a25.238 25.238 0 0 1 10 0c-.752.671-1.086 1.504-1 2.5Z" style="opacity:1"/>
  <path fill="#503c44" d="m83.5 118.5-1-2c1.248-.834 1.915-2.167 2-4l-.5-4c-.384 2.56-1.217 4.894-2.5 7-2.392-1.242-2.225-2.575.5-4a8.435 8.435 0 0 0 .5-4 8.43 8.43 0 0 0-4 .5c1.066 1.159.733 1.992-1 2.5a31.12 31.12 0 0 0-2-2 22.755 22.755 0 0 0 5-4 8.902 8.902 0 0 1 4 3l2-1c-.757 2.798-.757 5.798 0 9-.016 2.016-1.016 3.016-3 3Z" style="opacity:1"/>
  <path fill="#645b59" d="M97.5 108.5h8v10a34.162 34.162 0 0 0-10-1c1.742-2.645 2.409-5.645 2-9Z" style="opacity:1"/>
  <path fill="#c3c3c3" d="M98.5 109.5h5v7h-5v-7Z" style="opacity:1"/>
  <path fill="#bcbbbb" d="M82.5 116.5c-.667 0-1-.333-1-1 1.283-2.106 2.116-4.44 2.5-7l.5 4c-.085 1.833-.752 3.166-2 4Z" style="opacity:1"/>
  <path fill="#3e310f" d="M61.5 114.5c-.652.949-.986 2.115-1 3.5.175 1.658.842 2.991 2 4-1.117 1.892-2.784 2.725-5 2.5-1.254-3.81-2.254-3.81-3 0h-5c.607-5.692.94-11.359 1-17 1.777-.286 3.444-.953 5-2 1.556 1.047 3.223 1.714 5 2a51.648 51.648 0 0 0 1 7Z" style="opacity:1"/>
  <path fill="#0033d9" d="M57.5 115.5c1.965.448 2.298 1.448 1 3-.886-.825-1.219-1.825-1-3Z" style="opacity:1"/>
  <path fill="#0e2ba0" d="M52.5 115.5c1.086.12 1.753.787 2 2l-1 2c-.929-1.189-1.262-2.522-1-4Z" style="opacity:1"/>
  <path fill="#a06c0d" d="M29.5 102.5v1c-.543.06-.876.393-1 1a16.874 16.874 0 0 0 8 1l-7 4v8h7c-.31-3.213.023-6.213 1-9v8c1.599-.268 2.932.066 4 1-.79.283-1.456.783-2 1.5 1.098.77 1.098 1.603 0 2.5h-5a20.691 20.691 0 0 0-5 1 10.162 10.162 0 0 1-3-3c2.322-4.721 2.655-9.721 1-15 .247-1.213.914-1.88 2-2Z" style="opacity:1"/>
  <path fill="#c1c1c1" d="M29.5 109.5h5c.368 3.033-.298 5.7-2 8h-3v-8Z" style="opacity:1"/>
  <path fill="#a94f10" d="M90.5 117.5c1.525.674 2.858 1.674 4 3l1-1c-2.425-1.149-2.425-1.816 0-2a34.162 34.162 0 0 1 10 1c1.291-.237 2.291.096 3 1a8.43 8.43 0 0 1-.5 4c-.671-.752-1.504-1.086-2.5-1-2.554-.888-5.221-1.221-8-1a21.434 21.434 0 0 0-7 1v-5Z" style="opacity:1"/>
  <path fill="#8e4c69" d="M77.5 110.5c1.733-.508 2.066-1.341 1-2.5a8.43 8.43 0 0 1 4-.5 8.435 8.435 0 0 1-.5 4c-2.725 1.425-2.892 2.758-.5 4 0 .667.333 1 1 1l1 2c1.28 2.484.947 4.818-1 7-1.63-1.559-2.464-3.559-2.5-6a4.932 4.932 0 0 0-.5 3c-1.322-.17-2.489.163-3.5 1-1.757-2.856-.923-5.023 2.5-6.5-2.27-1.807-4.103-1.307-5.5 1.5-1.438-1.4-2.271-3.067-2.5-5a4.934 4.934 0 0 0 3-.5c-.994-1.329-1.994-2.662-3-4 2.09-3.505 3.422-3.172 4 1a4.934 4.934 0 0 0 3 .5Z" style="opacity:1"/>
  <path fill="#852212" d="M108.5 119.5c1.195.366 1.861 1.199 2 2.5-.32 3.163-1.986 4.996-5 5.5v-5c.996-.086 1.829.248 2.5 1a8.43 8.43 0 0 0 .5-4Z" style="opacity:1"/>
  <path fill="#504d4d" d="M34.5 121.5h2v3c.38 2.198-.287 3.865-2 5v-8Z" style="opacity:1"/>
  <path fill="#3536d2" d="M57.5 124.5v1c-1.291.237-2.291-.096-3-1 .746-3.81 1.746-3.81 3 0Z" style="opacity:1"/>
  <path fill="#9a9797" d="M97.5 121.5c2.779-.221 5.446.112 8 1v9c-4.487-.534-7.153-2.867-8-7v-3Z" style="opacity:1"/>
  <path fill="#b9b8b8" d="M34.5 121.5v8a20.691 20.691 0 0 1-5 1v-8a20.691 20.691 0 0 1 5-1Z" style="opacity:1"/>
  <path fill="#7d1f11" d="M26.5 119.5a10.162 10.162 0 0 0 3 3v4c-3.44.163-5.44-1.504-6-5 .505-1.419 1.505-2.085 3-2Z" style="opacity:1"/>
  <path fill="#8e1815" d="M61.5 114.5v6h9c2.087 1.085 3.42 2.751 4 5v3h16c.166 6.342 0 12.675-.5 19-1.805 3.643-4.638 5.976-8.5 7-6.77.866-11.438-1.801-14-8v-10h-3v13l-1.5 3a159.327 159.327 0 0 0-1.5-18 10.122 10.122 0 0 0-1.5-4c-.5 7.659-.666 15.326-.5 23-.342.838-1.008 1.172-2 1v-26h-3c-.326 8.849.007 17.516 1 26v1l-4-1c1.315-8.765 1.315-17.432 0-26-1.967 7.597-2.633 15.597-2 24-.992.172-1.658-.162-2-1v-23c-1.291.237-2.291-.096-3-1a57.15 57.15 0 0 0 15-1c-.457-.798-1.124-1.131-2-1v-1c2.216.225 3.883-.608 5-2.5-1.158-1.009-1.825-2.342-2-4 .014-1.385.348-2.551 1-3.5Z" style="opacity:1"/>
  <path fill="#911c17" d="M36.5 124.5a4.934 4.934 0 0 1 3 .5c1.54 3.484.54 5.984-3 7.5a15515.22 15515.22 0 0 0-8 3 6.544 6.544 0 0 1-3-3c1.653-.16 2.986-.826 4-2a20.691 20.691 0 0 0 5-1c1.713-1.135 2.38-2.802 2-5Z" style="opacity:.958"/>
  <path fill="#8d1814" d="M97.5 124.5c.847 4.133 3.513 6.466 8 7 1.208.734 2.541 1.067 4 1 .536 3.165-.297 5.831-2.5 8-.198-1.882-.698-3.548-1.5-5-.342-.838-1.008-1.172-2-1a5.727 5.727 0 0 1-3-1c-.79-.901-1.79-1.568-3-2-2.222-.059-3.222-1.225-3-3.5-.222-2.275.778-3.441 3-3.5Z" style="opacity:1"/>
  <path fill="#0d3f81" d="M64.5 122.5c7.003-.827 9.503 2.173 7.5 9-3.049 3.982-6.049 3.982-9 0-.932-3.323-.432-6.323 1.5-9Z" style="opacity:1"/>
  <path fill="#615706" d="M69.5 124.5c2.265 1.44 2.432 3.107.5 5-1.628-1.462-1.795-3.128-.5-5Z" style="opacity:1"/>
  <path fill="#6c6000" d="M64.5 124.5c1.868 1.286 2.034 2.619.5 4-1.51-1.064-1.677-2.397-.5-4Z" style="opacity:1"/>
  <path fill="#694405" d="M43.5 122.5c.951 1.419 1.285 3.085 1 5 .709.904 1.709 1.237 3 1v23c-.978-.311-1.645-.978-2-2 1.295-6.641 1.295-13.307 0-20a114.67 114.67 0 0 0-1.5 15 242.43 242.43 0 0 1-.5-22Z" style="opacity:1"/>
  <path fill="#c5af00" d="M51.5 128.5c.633 8.403-.033 16.403-2 24-.633-8.403.033-16.403 2-24Z" style="opacity:1"/>
  <path fill="#633c06" d="M51.5 128.5c1.315 8.568 1.315 17.235 0 26-1-.333-1.667-1-2-2 1.967-7.597 2.633-15.597 2-24Z" style="opacity:1"/>
  <path fill="#928200" d="M57.5 154.5h-2c-.993-8.484-1.326-17.151-1-26h3v26Z" style="opacity:1"/>
  <path fill="#2a270e" d="M66.5 128.5c3.28 1.232 3.614 2.899 1 5-2.126-1.409-2.46-3.076-1-5Z" style="opacity:1"/>
  <path fill="#bebebe" d="M100.5 133.5c.891.61 1.891.943 3 1v11h-5c-.59-4.471.077-8.471 2-12Z" style="opacity:1"/>
  <path fill="#a7a5a5" d="M36.5 132.5v11c-3-2.333-5.667-5-8-8l8-3Z" style="opacity:.852"/>
  <path fill="#b29d00" d="M61.5 134.5c.623 6.755-.044 13.088-2 19-.166-7.674 0-15.341.5-23a10.122 10.122 0 0 1 1.5 4Z" style="opacity:1"/>
  <path fill="#5e5854" d="M97.5 131.5c1.21.432 2.21 1.099 3 2-1.923 3.529-2.59 7.529-2 12h5v-11c.992-.172 1.658.162 2 1v10c-2.667 1.333-5.333 1.333-8 0v-14Z" style="opacity:1"/>
  <path fill="#bf8e0e" d="M84.5 148.5c.086.996-.248 1.829-1 2.5-5.578 2.196-9.911.696-13-4.5a58.983 58.983 0 0 0-1-9.5 9.457 9.457 0 0 0 2.5-1.5c-1.144 3.85.023 4.683 3.5 2.5-1.905-.826-2.239-1.993-1-3.5a14.833 14.833 0 0 1 3.5 4c-.51-1.88-.343-3.713.5-5.5-1.544-.29-2.877-.956-4-2 4.112-.265 8.446-.431 13-.5.166 5.011 0 10.011-.5 15-.236 1.619-1.069 2.619-2.5 3Z" style="opacity:1"/>
  <path fill="#786b00" d="M67.5 146.5a10.162 10.162 0 0 1-3 3v-13h3v10Z" style="opacity:1"/>
  <path fill="#ae2117" d="M76.5 144.5c3.118 4.882 2.118 5.882-3 3 .84-1.235 1.84-2.235 3-3Z" style="opacity:1"/>
  <path fill="#b33d15" d="M84.5 148.5c-1.89-.203-3.39.463-4.5 2-1.548-2.782-1.548-5.449 0-8 .67 2.767 1.836 3.267 3.5 1.5-.405-.945-1.072-1.612-2-2l3-1.5c1.115 2.656 1.115 5.323 0 8Z" style="opacity:1"/>
  <path fill="#7b6800" d="M97.5 145.5c2.667 1.333 5.333 1.333 8 0 1.431 1.28 2.098 2.947 2 5h-1c-1.194-1.277-2.86-1.944-5-2-2.14.056-3.806.723-5 2h-1c-.098-2.053.569-3.72 2-5Z" style="opacity:1"/>
  <path fill="#c7b100" d="M106.5 150.5h-10c1.194-1.277 2.86-1.944 5-2 2.14.056 3.806.723 5 2Z" style="opacity:1"/>
  <path fill="#424f67" d="M95.5 150.5h12c1.293 1.864 1.293 3.864 0 6h-12c-1.293-2.136-1.293-4.136 0-6Z" style="opacity:1"/>
  <path fill="#6e6956" d="M61.5 134.5a159.327 159.327 0 0 1 1.5 18l1.5-3a10.162 10.162 0 0 0 3-3c2.563 6.199 7.23 8.866 14 8-8.554 3.526-17.22 3.859-26 1v-1h2c.992.172 1.658-.162 2-1 1.956-5.912 2.623-12.245 2-19Z" style="opacity:1"/>
  <path fill="#c50b1d" d="M64.5 171.5h121a1208.108 1208.108 0 0 1-59 58h-4a793.431 793.431 0 0 1-58-58Z" style="opacity:.975"/>
</svg>